<svg width="1534" height="308" viewBox="0 0 1534 308" fill="none" xmlns="http://www.w3.org/2000/svg">
<mask id="mask0_297_38" style="mask-type:luminance" maskUnits="userSpaceOnUse" x="0" y="0" width="1534" height="308">
<path d="M1534 0H0V308H1534V0Z" fill="white"/>
</mask>
<g mask="url(#mask0_297_38)">
<mask id="mask1_297_38" style="mask-type:luminance" maskUnits="userSpaceOnUse" x="-1" y="-1" width="1535" height="308">
<path d="M1534 -1H-1V307H1534V-1Z" fill="white"/>
<path d="M300 142H228.8L212.6 122H89.4L73.2 142H2L115.4 2H186.6L300 142ZM180.2 82L151 46L121.8 82H180.2ZM334.055 2H550.055C557.388 2 564.121 2.86667 570.255 4.6C576.388 6.33334 581.655 8.93334 586.055 12.4C590.455 15.7333 593.855 19.8667 596.255 24.8C598.788 29.7333 600.055 35.4667 600.055 42C600.055 48.8 598.521 54.7333 595.455 59.8C592.521 64.8667 588.255 68.9333 582.655 72C588.255 75.0667 592.521 79.1333 595.455 84.2C598.521 89.2667 600.055 95.2 600.055 102C600.055 108.533 598.788 114.267 596.255 119.2C593.855 124.133 590.455 128.333 586.055 131.8C581.655 135.133 576.388 137.667 570.255 139.4C564.121 141.133 557.388 142 550.055 142H334.055V2ZM397.255 54H528.055C533.921 54 536.855 51.3333 536.855 46C536.855 40.6667 533.921 38 528.055 38H397.255V54ZM528.055 106C533.921 106 536.855 103.333 536.855 98C536.855 92.6667 533.921 90 528.055 90H397.255V106H528.055ZM850.078 0C859.678 0 868.745 1.93333 877.278 5.8C885.811 9.66667 893.211 14.9333 899.478 21.6C905.878 28.1333 910.878 35.8 914.478 44.6C918.211 53.2667 920.078 62.4 920.078 72C920.078 81.6 918.211 90.8 914.478 99.6C910.878 108.267 905.878 115.933 899.478 122.6C893.211 129.133 885.811 134.333 877.278 138.2C868.745 142.067 859.678 144 850.078 144H704.078C694.478 144 685.411 142.067 676.878 138.2C668.345 134.333 660.878 129.133 654.478 122.6C648.211 115.933 643.211 108.267 639.478 99.6C635.878 90.8 634.078 81.6 634.078 72C634.078 62.4 635.878 53.2667 639.478 44.6C643.211 35.8 648.211 28.1333 654.478 21.6C660.878 14.9333 668.345 9.66667 676.878 5.8C685.411 1.93333 694.478 0 704.078 0H850.078ZM837.078 52H717.078C711.478 52 706.745 53.9333 702.878 57.8C699.011 61.6667 697.078 66.4 697.078 72C697.078 77.6 699.011 82.3333 702.878 86.2C706.745 90.0667 711.478 92 717.078 92H837.078C842.678 92 847.411 90.0667 851.278 86.2C855.145 82.3333 857.078 77.6 857.078 72C857.078 66.4 855.145 61.6667 851.278 57.8C847.411 53.9333 842.678 52 837.078 52ZM1224.13 72C1224.13 81.6 1222.26 90.8 1218.53 99.6C1214.93 108.267 1209.93 115.933 1203.53 122.6C1197.26 129.133 1189.86 134.333 1181.33 138.2C1172.79 142.067 1163.73 144 1154.13 144H1028.13C1018.53 144 1009.46 142.067 1000.93 138.2C992.392 134.333 984.925 129.133 978.525 122.6C972.258 115.933 967.258 108.267 963.525 99.6C959.925 90.8 958.125 81.6 958.125 72V2H1021.33V72C1021.33 77.6 1023.26 82.3333 1027.13 86.2C1030.99 90.0667 1035.73 92 1041.33 92H1140.93C1146.53 92 1151.26 90.0667 1155.13 86.2C1158.99 82.3333 1160.93 77.6 1160.93 72V2H1224.13V72ZM1367.36 50H1266.16V2H1532.16V50H1430.56V142H1367.36V50ZM2 166H86.4L164.2 262L242 166H329.6V306H266.4V223.8L199.8 306H128.6L65.2 227.8V306H2V166ZM371.555 166H631.555V202H434.755V218H631.555V254H434.755V270H631.555V306H371.555V166Z" fill="black"/>
</mask>
<g mask="url(#mask1_297_38)">
<path d="M300 142V142.5H301.048L300.389 141.685L300 142ZM228.8 142L228.411 142.315L228.562 142.5H228.8V142ZM212.6 122L212.989 121.685L212.838 121.5H212.6V122ZM89.4002 122V121.5H89.1618L89.0117 121.685L89.4002 122ZM73.2002 142V142.5H73.4387L73.5887 142.315L73.2002 142ZM2.00022 142L1.61169 141.685L0.951768 142.5H2.00022V142ZM115.4 2V1.5H115.162L115.011 1.68529L115.4 2ZM186.6 2L186.989 1.68529L186.838 1.5H186.6V2ZM180.2 82V82.5H181.249L180.588 81.685L180.2 82ZM151 46L151.388 45.685L151 45.2063L150.612 45.685L151 46ZM121.8 82L121.412 81.685L120.751 82.5H121.8V82ZM300.389 141.685L286.214 124.185L285.436 124.815L299.611 142.315L300.389 141.685ZM257.864 89.1853L229.514 54.1853L228.736 54.8147L257.086 89.8147L257.864 89.1853ZM201.164 19.1853L186.989 1.68529L186.211 2.31471L200.386 19.8147L201.164 19.1853ZM186.6 1.5H168.8V2.5H186.6V1.5ZM133.2 1.5H115.4V2.5H133.2V1.5ZM115.011 1.68529L100.836 19.1853L101.614 19.8147L115.789 2.31471L115.011 1.68529ZM72.4867 54.1853L44.1367 89.1853L44.9137 89.8147L73.2637 54.8147L72.4867 54.1853ZM15.7867 124.185L1.61169 141.685L2.38875 142.315L16.5637 124.815L15.7867 124.185ZM2.00022 142.5H19.8002V141.5H2.00022V142.5ZM55.4002 142.5H73.2002V141.5H55.4002V142.5ZM73.5887 142.315L77.6387 137.315L76.8617 136.685L72.8117 141.685L73.5887 142.315ZM85.7387 127.315L89.7887 122.315L89.0117 121.685L84.9617 126.685L85.7387 127.315ZM89.4002 122.5H120.2V121.5H89.4002V122.5ZM181.8 122.5H212.6V121.5H181.8V122.5ZM212.211 122.315L216.261 127.315L217.039 126.685L212.989 121.685L212.211 122.315ZM224.361 137.315L228.411 142.315L229.189 141.685L225.139 136.685L224.361 137.315ZM228.8 142.5H246.6V141.5H228.8V142.5ZM282.2 142.5H300V141.5H282.2V142.5ZM180.2 81.5H165.6V82.5H180.2V81.5ZM136.4 81.5H121.8V82.5H136.4V81.5ZM122.188 82.315L129.488 73.315L128.712 72.685L121.412 81.685L122.188 82.315ZM144.088 55.315L151.388 46.315L150.612 45.685L143.312 54.685L144.088 55.315ZM150.612 46.315L157.912 55.315L158.688 54.685L151.388 45.685L150.612 46.315ZM172.512 73.315L179.812 82.315L180.588 81.685L173.288 72.685L172.512 73.315ZM300 142V143H302.097L300.777 141.371L300 142ZM228.8 142L228.023 142.629L228.323 143H228.8V142ZM212.6 122L213.377 121.371L213.077 121H212.6V122ZM89.4002 122V121H88.9233L88.6231 121.371L89.4002 122ZM73.2002 142V143H73.6771L73.9773 142.629L73.2002 142ZM2.00022 142L1.22316 141.371L-0.0966797 143H2.00022V142ZM115.4 2V1H114.923L114.623 1.37058L115.4 2ZM186.6 2L187.377 1.37058L187.077 1H186.6V2ZM180.2 82V83H182.299L180.977 81.3701L180.2 82ZM151 46L151.777 45.3701L151 44.4126L150.223 45.3701L151 46ZM121.8 82L121.023 81.3701L119.701 83H121.8V82ZM300.777 141.371L286.602 123.871L285.048 125.129L299.223 142.629L300.777 141.371ZM258.252 88.8706L229.902 53.8706L228.348 55.1294L256.698 90.1294L258.252 88.8706ZM201.552 18.8706L187.377 1.37058L185.823 2.62942L199.998 20.1294L201.552 18.8706ZM186.6 1H168.8V3H186.6V1ZM133.2 1H115.4V3H133.2V1ZM114.623 1.37058L100.448 18.8706L102.002 20.1294L116.177 2.62942L114.623 1.37058ZM72.0981 53.8706L43.7481 88.8706L45.3023 90.1294L73.6523 55.1294L72.0981 53.8706ZM15.3981 123.871L1.22316 141.371L2.77728 142.629L16.9523 125.129L15.3981 123.871ZM2.00022 143H19.8002V141H2.00022V143ZM55.4002 143H73.2002V141H55.4002V143ZM73.9773 142.629L78.0273 137.629L76.4731 136.371L72.4231 141.371L73.9773 142.629ZM86.1273 127.629L90.1773 122.629L88.6231 121.371L84.5731 126.371L86.1273 127.629ZM89.4002 123H120.2V121H89.4002V123ZM181.8 123H212.6V121H181.8V123ZM211.823 122.629L215.873 127.629L217.427 126.371L213.377 121.371L211.823 122.629ZM223.973 137.629L228.023 142.629L229.577 141.371L225.527 136.371L223.973 137.629ZM228.8 143H246.6V141H228.8V143ZM282.2 143H300V141H282.2V143ZM180.2 81H165.6V83H180.2V81ZM136.4 81H121.8V83H136.4V81ZM122.577 82.6299L129.877 73.6299L128.323 72.3701L121.023 81.3701L122.577 82.6299ZM144.477 55.6299L151.777 46.6299L150.223 45.3701L142.923 54.3701L144.477 55.6299ZM150.223 46.6299L157.523 55.6299L159.077 54.3701L151.777 45.3701L150.223 46.6299ZM172.123 73.6299L179.423 82.6299L180.977 81.3701L173.677 72.3701L172.123 73.6299ZM334.055 2V1.5H333.555V2H334.055ZM586.055 12.4L585.745 12.7928L585.753 12.7985L586.055 12.4ZM596.255 24.8L595.805 25.0188L595.81 25.0284L596.255 24.8ZM595.455 59.8L595.027 59.541L595.022 59.5495L595.455 59.8ZM582.655 72L582.415 71.5614L581.614 72L582.415 72.4385L582.655 72ZM595.455 84.2L595.022 84.4506L595.027 84.4589L595.455 84.2ZM596.255 119.2L595.81 118.972L595.805 118.981L596.255 119.2ZM586.055 131.8L586.357 132.199L586.364 132.193L586.055 131.8ZM334.055 142H333.555V142.5H334.055V142ZM397.255 54H396.755V54.5H397.255V54ZM397.255 38V37.5H396.755V38H397.255ZM397.255 90V89.5H396.755V90H397.255ZM397.255 106H396.755V106.5H397.255V106ZM333.555 2V37H334.555V2H333.555ZM333.555 107V142H334.555V107H333.555ZM334.055 142.5H361.055V141.5H334.055V142.5ZM415.055 142.5H469.055V141.5H415.055V142.5ZM523.055 142.5H550.055V141.5H523.055V142.5ZM550.055 142.5C551.799 142.5 553.511 142.451 555.189 142.354L555.131 141.355C553.473 141.452 551.781 141.5 550.055 141.5V142.5ZM565.386 141.079C567.095 140.74 568.764 140.341 570.391 139.881L570.119 138.919C568.518 139.371 566.876 139.764 565.192 140.098L565.386 141.079ZM570.391 139.881C571.849 139.469 573.259 139.012 574.621 138.51L574.275 137.572C572.938 138.064 571.553 138.514 570.119 138.919L570.391 139.881ZM582.659 134.694C583.952 133.918 585.184 133.087 586.357 132.199L585.753 131.401C584.61 132.267 583.407 133.079 582.145 133.836L582.659 134.694ZM586.364 132.193C587.462 131.328 588.499 130.417 589.475 129.461L588.775 128.747C587.826 129.677 586.816 130.564 585.745 131.407L586.364 132.193ZM594.686 123.036C595.422 121.877 596.095 120.671 596.704 119.419L595.805 118.981C595.212 120.2 594.558 121.373 593.842 122.5L594.686 123.036ZM596.699 119.428C597.381 118.102 597.972 116.719 598.472 115.279L597.528 114.951C597.042 116.347 596.469 117.687 595.81 118.972L596.699 119.428ZM600.346 106.488C600.485 105.034 600.555 103.538 600.555 102H599.555C599.555 103.508 599.487 104.972 599.35 106.392L600.346 106.488ZM600.555 102C600.555 100.386 600.469 98.8186 600.298 97.2981L599.304 97.4101C599.471 98.8913 599.555 100.421 599.555 102H600.555ZM598.009 88.1633C597.407 86.6959 596.698 85.2884 595.882 83.9411L595.027 84.4589C595.816 85.7617 596.501 87.1229 597.084 88.5428L598.009 88.1633ZM595.887 83.9495C595.124 82.6303 594.271 81.3775 593.329 80.1913L592.546 80.8132C593.457 81.9609 594.283 83.1733 595.022 84.4506L595.887 83.9495ZM586.738 73.9679C585.534 73.1069 584.252 72.3048 582.895 71.5614L582.415 72.4385C583.739 73.1637 584.986 73.9447 586.157 74.7815L586.738 73.9679ZM582.895 72.4385C584.252 71.6952 585.534 70.8931 586.738 70.0321L586.157 69.2185C584.986 70.0553 583.739 70.8363 582.415 71.5614L582.895 72.4385ZM593.329 63.8087C594.271 62.6225 595.124 61.3697 595.887 60.0505L595.022 59.5495C594.283 60.8267 593.457 62.0391 592.546 63.1868L593.329 63.8087ZM595.882 60.0589C596.698 58.7116 597.407 57.3041 598.009 55.8367L597.084 55.4572C596.501 56.8771 595.816 58.2382 595.027 59.541L595.882 60.0589ZM600.298 46.7018C600.469 45.1814 600.555 43.614 600.555 42H599.555C599.555 43.5788 599.471 45.1087 599.304 46.5899L600.298 46.7018ZM600.555 42C600.555 40.4615 600.485 38.9656 600.346 37.5125L599.35 37.6079C599.487 39.0277 599.555 40.4916 599.555 42H600.555ZM598.472 28.7205C597.972 27.2814 597.381 25.8983 596.699 24.5716L595.81 25.0284C596.469 26.3128 597.042 27.6529 597.528 29.049L598.472 28.7205ZM596.704 24.5813C596.099 23.3366 595.43 22.1417 594.699 20.9966L593.856 21.535C594.566 22.647 595.216 23.8083 595.805 25.0188L596.704 24.5813ZM589.485 14.6622C588.504 13.7251 587.461 12.8382 586.357 12.0015L585.753 12.7985C586.828 13.6128 587.841 14.4751 588.794 15.3853L589.485 14.6622ZM586.364 12.0073C585.199 11.089 583.973 10.231 582.689 9.43337L582.161 10.2829C583.415 11.0613 584.61 11.898 585.745 12.7928L586.364 12.0073ZM574.643 5.50964C573.274 4.99665 571.856 4.53309 570.391 4.11885L570.119 5.08116C571.559 5.4882 572.95 5.94321 574.292 6.44608L574.643 5.50964ZM570.391 4.11885C568.764 3.65904 567.095 3.2599 565.386 2.92132L565.192 3.90226C566.876 4.23583 568.518 4.62882 570.119 5.08116L570.391 4.11885ZM555.189 1.64645C553.511 1.5488 551.799 1.5 550.055 1.5V2.5C551.781 2.5 553.473 2.54827 555.131 2.64476L555.189 1.64645ZM550.055 1.5H523.055V2.5H550.055V1.5ZM469.055 1.5H415.055V2.5H469.055V1.5ZM361.055 1.5H334.055V2.5H361.055V1.5ZM397.755 54V50H396.755V54H397.755ZM397.755 42V38H396.755V42H397.755ZM397.255 38.5H429.955V37.5H397.255V38.5ZM495.355 38.5H528.055V37.5H495.355V38.5ZM528.055 38.5C529.286 38.5 530.372 38.6207 531.316 38.8561L531.558 37.8859C530.519 37.6267 529.35 37.5 528.055 37.5V38.5ZM535.882 42.8039C536.194 43.7088 536.355 44.7715 536.355 46H537.355C537.355 44.6864 537.183 43.5099 536.828 42.4785L535.882 42.8039ZM536.355 46C536.355 47.2285 536.194 48.2912 535.882 49.1961L536.828 49.5215C537.183 48.4901 537.355 47.3136 537.355 46H536.355ZM531.316 53.1439C530.372 53.3793 529.286 53.5 528.055 53.5V54.5C529.35 54.5 530.519 54.3733 531.558 54.1141L531.316 53.1439ZM528.055 53.5H495.355V54.5H528.055V53.5ZM429.955 53.5H397.255V54.5H429.955V53.5ZM528.055 105.5H495.355V106.5H528.055V105.5ZM429.955 105.5H397.255V106.5H429.955V105.5ZM397.755 106V102H396.755V106H397.755ZM397.755 94V90H396.755V94H397.755ZM397.255 90.5H429.955V89.5H397.255V90.5ZM495.355 90.5H528.055V89.5H495.355V90.5ZM528.055 90.5C529.286 90.5 530.372 90.6207 531.316 90.8561L531.558 89.8859C530.519 89.6267 529.35 89.5 528.055 89.5V90.5ZM535.882 94.8039C536.194 95.7088 536.355 96.7715 536.355 98H537.355C537.355 96.6864 537.183 95.5099 536.828 94.4785L535.882 94.8039ZM536.355 98C536.355 99.2285 536.194 100.291 535.882 101.196L536.828 101.522C537.183 100.49 537.355 99.3136 537.355 98H536.355ZM531.316 105.144C530.372 105.379 529.286 105.5 528.055 105.5V106.5C529.35 106.5 530.519 106.373 531.558 106.114L531.316 105.144ZM334.055 2V1H333.055V2H334.055ZM586.055 12.4L585.436 13.1855L585.443 13.1914L585.451 13.1971L586.055 12.4ZM596.255 24.8L595.355 25.2375L595.36 25.2472L595.365 25.2568L596.255 24.8ZM595.455 59.8L594.599 59.2822L594.594 59.2905L594.589 59.299L595.455 59.8ZM582.655 72L582.174 71.1229L580.573 72L582.174 72.8771L582.655 72ZM595.455 84.2L594.589 84.701L594.594 84.7095L594.599 84.7178L595.455 84.2ZM596.255 119.2L595.365 118.743L595.36 118.753L595.355 118.763L596.255 119.2ZM586.055 131.8L586.659 132.597L586.666 132.591L586.674 132.585L586.055 131.8ZM334.055 142H333.055V143H334.055V142ZM397.255 54H396.255V55H397.255V54ZM397.255 38V37H396.255V38H397.255ZM397.255 90V89H396.255V90H397.255ZM397.255 106H396.255V107H397.255V106ZM333.055 2V37H335.055V2H333.055ZM333.055 107V142H335.055V107H333.055ZM334.055 143H361.055V141H334.055V143ZM415.055 143H469.055V141H415.055V143ZM523.055 143H550.055V141H523.055V143ZM550.055 143C551.809 143 553.53 142.951 555.218 142.853L555.102 140.856C553.454 140.952 551.771 141 550.055 141V143ZM565.483 141.569C567.205 141.228 568.886 140.826 570.527 140.362L569.983 138.438C568.395 138.886 566.766 139.276 565.094 139.607L565.483 141.569ZM570.527 140.362C571.996 139.947 573.419 139.486 574.794 138.979L574.102 137.102C572.778 137.591 571.405 138.036 569.983 138.438L570.527 140.362ZM582.916 135.122C584.224 134.338 585.472 133.496 586.659 132.597L585.451 131.003C584.323 131.858 583.135 132.659 581.888 133.407L582.916 135.122ZM586.674 132.585C587.785 131.71 588.836 130.787 589.825 129.818L588.425 128.39C587.489 129.307 586.492 130.182 585.436 131.015L586.674 132.585ZM595.108 123.304C595.855 122.129 596.537 120.906 597.154 119.637L595.355 118.763C594.771 119.964 594.126 121.121 593.42 122.232L595.108 123.304ZM597.144 119.657C597.836 118.309 598.436 116.904 598.944 115.444L597.055 114.787C596.577 116.161 596.014 117.48 595.365 118.743L597.144 119.657ZM600.844 106.535C600.984 105.065 601.055 103.554 601.055 102H599.055C599.055 103.493 598.987 104.941 598.853 106.344L600.844 106.535ZM601.055 102C601.055 100.368 600.968 98.7823 600.795 97.2422L598.807 97.466C598.972 98.9277 599.055 100.439 599.055 102H601.055ZM598.471 87.9735C597.86 86.4824 597.139 85.0518 596.31 83.6822L594.599 84.7178C595.374 85.9983 596.048 87.3364 596.621 88.7326L598.471 87.9735ZM596.32 83.699C595.544 82.3588 594.678 81.0858 593.72 79.8803L592.154 81.1241C593.05 82.2526 593.862 83.4447 594.589 84.701L596.32 83.699ZM587.029 73.5611C585.807 72.688 584.509 71.8754 583.135 71.1229L582.174 72.8771C583.482 73.5931 584.712 74.3636 585.866 75.1883L587.029 73.5611ZM583.135 72.8771C584.509 72.1246 585.807 71.312 587.029 70.4389L585.866 68.8117C584.712 69.6364 583.482 70.4069 582.174 71.1229L583.135 72.8771ZM593.72 64.1197C594.678 62.9142 595.544 61.6412 596.32 60.301L594.589 59.299C593.862 60.5553 593.05 61.7474 592.154 62.8759L593.72 64.1197ZM596.31 60.3178C597.139 58.9482 597.86 57.5176 598.471 56.0265L596.621 55.2674C596.048 56.6635 595.374 58.0017 594.599 59.2822L596.31 60.3178ZM600.795 46.7578C600.968 45.2177 601.055 43.6317 601.055 42H599.055C599.055 43.5611 598.972 45.0723 598.807 46.534L600.795 46.7578ZM601.055 42C601.055 40.4465 600.984 38.9346 600.844 37.4648L598.853 37.6557C598.987 39.0587 599.055 40.5067 599.055 42H601.055ZM598.944 28.5563C598.436 27.0957 597.836 25.6911 597.144 24.3432L595.365 25.2568C596.014 26.52 596.577 27.8386 597.055 29.2132L598.944 28.5563ZM597.154 24.3625C596.54 23.1009 595.862 21.8891 595.12 20.7274L593.435 21.8042C594.134 22.8996 594.775 24.0439 595.355 25.2375L597.154 24.3625ZM589.83 14.3006C588.835 13.3501 587.778 12.4509 586.659 11.6029L585.451 13.1971C586.511 14.0001 587.51 14.8501 588.449 15.7469L589.83 14.3006ZM586.674 11.6145C585.493 10.6845 584.253 9.81586 582.953 9.00859L581.898 10.7077C583.136 11.4765 584.315 12.3024 585.436 13.1855L586.674 11.6145ZM574.819 5.04142C573.436 4.52338 572.005 4.05554 570.527 3.63769L569.983 5.56231C571.41 5.96575 572.788 6.41649 574.117 6.9143L574.819 5.04142ZM570.527 3.63769C568.886 3.17416 567.205 2.77193 565.483 2.43085L565.094 4.39274C566.766 4.72379 568.395 5.11371 569.983 5.56231L570.527 3.63769ZM555.218 1.14729C553.53 1.04906 551.809 1 550.055 1V3C551.771 3 553.454 3.04801 555.102 3.14391L555.218 1.14729ZM550.055 1H523.055V3H550.055V1ZM469.055 1H415.055V3H469.055V1ZM361.055 1H334.055V3H361.055V1ZM398.255 54V50H396.255V54H398.255ZM398.255 42V38H396.255V42H398.255ZM397.255 39H429.955V37H397.255V39ZM495.355 39H528.055V37H495.355V39ZM528.055 39C529.255 39 530.299 39.1177 531.195 39.3413L531.679 37.4007C530.592 37.1296 529.381 37 528.055 37V39ZM535.409 42.9666C535.699 43.8083 535.855 44.814 535.855 46H537.855C537.855 44.6438 537.677 43.4104 537.3 42.3157L535.409 42.9666ZM535.855 46C535.855 47.186 535.699 48.1917 535.409 49.0334L537.3 49.6843C537.677 48.5896 537.855 47.3561 537.855 46H535.855ZM531.195 52.6587C530.299 52.8823 529.255 53 528.055 53V55C529.381 55 530.592 54.8703 531.679 54.5992L531.195 52.6587ZM528.055 53H495.355V55H528.055V53ZM429.955 53H397.255V55H429.955V53ZM528.055 105H495.355V107H528.055V105ZM429.955 105H397.255V107H429.955V105ZM398.255 106V102H396.255V106H398.255ZM398.255 94V90H396.255V94H398.255ZM397.255 91H429.955V89H397.255V91ZM495.355 91H528.055V89H495.355V91ZM528.055 91C529.255 91 530.299 91.1177 531.195 91.3413L531.679 89.4007C530.592 89.1297 529.381 89 528.055 89V91ZM535.409 94.9666C535.699 95.8083 535.855 96.814 535.855 98H537.855C537.855 96.6438 537.677 95.4104 537.3 94.3157L535.409 94.9666ZM535.855 98C535.855 99.186 535.699 100.192 535.409 101.033L537.3 101.684C537.677 100.59 537.855 99.3561 537.855 98H535.855ZM531.195 104.659C530.299 104.882 529.255 105 528.055 105V107C529.381 107 530.592 106.87 531.679 106.599L531.195 104.659ZM899.478 21.6L899.114 21.9425L899.121 21.9499L899.478 21.6ZM914.478 44.6L914.015 44.7893L914.019 44.7978L914.478 44.6ZM914.478 99.6L914.018 99.4047L914.016 99.4082L914.478 99.6ZM654.478 122.6L654.114 122.943L654.121 122.95L654.478 122.6ZM639.478 99.6L639.015 99.7893L639.019 99.7978L639.478 99.6ZM639.478 44.6L639.018 44.4047L639.016 44.4082L639.478 44.6ZM850.078 -0.499998H813.578V0.500002H850.078V-0.499998ZM740.578 -0.499998H704.078V0.500002H740.578V-0.499998ZM704.078 -0.499998C701.698 -0.499998 699.349 -0.381946 697.033 -0.145729L697.134 0.849112C699.416 0.61641 701.731 0.500002 704.078 0.500002V-0.499998ZM683.246 2.77959C681.02 3.51202 678.829 4.36705 676.672 5.34457L677.084 6.25543C679.21 5.29253 681.368 4.45057 683.559 3.72947L683.246 2.77959ZM676.672 5.34457C674.545 6.30805 672.485 7.35805 670.489 8.49463L670.984 9.36355C672.952 8.24247 674.986 7.20641 677.084 6.25543L676.672 5.34457ZM659.155 16.4806C657.409 17.9836 655.729 19.5746 654.117 21.2537L654.839 21.9463C656.429 20.2898 658.085 18.7206 659.808 17.2386L659.155 16.4806ZM654.117 21.2537C652.513 22.926 650.992 24.6723 649.552 26.4921L650.337 27.1124C651.756 25.3175 653.257 23.5956 654.839 21.9463L654.117 21.2537ZM641.993 38.1311C640.925 40.1549 639.934 42.2462 639.018 44.4047L639.938 44.7953C640.843 42.6619 641.823 40.5961 642.878 38.5977L641.993 38.1311ZM639.016 44.4082C638.107 46.5983 637.311 48.8182 636.629 51.068L637.586 51.3579C638.258 49.1402 639.043 46.9515 639.94 44.7918L639.016 44.4082ZM633.909 64.9353C633.688 67.2621 633.578 69.617 633.578 72H634.578C634.578 69.6479 634.687 67.3244 634.904 65.0296L633.909 64.9353ZM633.578 72C633.578 74.3953 633.689 76.7662 633.912 79.1127L634.908 79.0182C634.688 76.7036 634.578 74.3642 634.578 72H633.578ZM636.639 93.076C637.318 95.3392 638.11 97.5769 639.015 99.7893L639.941 99.4107C639.048 97.2278 638.267 95.0205 637.597 92.7886L636.639 93.076ZM639.019 99.7978C639.943 101.943 640.945 104.029 642.024 106.053L642.906 105.583C641.841 103.583 640.851 101.523 639.937 99.4022L639.019 99.7978ZM649.588 117.678C651.016 119.497 652.524 121.253 654.114 122.943L654.842 122.258C653.273 120.588 651.784 118.856 650.375 117.061L649.588 117.678ZM654.121 122.95C655.74 124.602 657.426 126.17 659.181 127.653L659.826 126.89C658.096 125.427 656.432 123.88 654.835 122.25L654.121 122.95ZM670.513 135.531C672.501 136.654 674.554 137.696 676.672 138.655L677.084 137.745C674.993 136.797 672.967 135.769 671.005 134.66L670.513 135.531ZM676.672 138.655C678.829 139.633 681.02 140.488 683.246 141.22L683.559 140.271C681.368 139.549 679.21 138.707 677.084 137.745L676.672 138.655ZM697.033 144.146C699.349 144.382 701.698 144.5 704.078 144.5V143.5C701.731 143.5 699.416 143.384 697.134 143.151L697.033 144.146ZM704.078 144.5H740.578V143.5H704.078V144.5ZM813.578 144.5H850.078V143.5H813.578V144.5ZM850.078 144.5C852.459 144.5 854.807 144.382 857.124 144.146L857.022 143.151C854.74 143.384 852.426 143.5 850.078 143.5V144.5ZM870.91 141.22C873.136 140.488 875.327 139.633 877.484 138.655L877.072 137.745C874.947 138.707 872.789 139.549 870.598 140.271L870.91 141.22ZM877.484 138.655C879.594 137.7 881.635 136.663 883.607 135.544L883.114 134.675C881.168 135.778 879.154 136.801 877.072 137.745L877.484 138.655ZM894.847 127.667C896.584 126.179 898.248 124.605 899.839 122.946L899.117 122.254C897.548 123.89 895.908 125.441 894.196 126.908L894.847 127.667ZM899.839 122.946C901.452 121.266 902.977 119.522 904.414 117.715L903.631 117.093C902.214 118.875 900.709 120.596 899.117 122.254L899.839 122.946ZM911.991 106.083C913.06 104.047 914.043 101.95 914.94 99.7918L914.016 99.4082C913.131 101.539 912.161 103.609 911.106 105.618L911.991 106.083ZM914.938 99.7953C915.875 97.5879 916.695 95.3552 917.398 93.0971L916.443 92.7997C915.75 95.0257 914.942 97.2274 914.018 99.4047L914.938 99.7953ZM920.23 79.1266C920.462 76.7755 920.578 74.4 920.578 72H919.578C919.578 74.3677 919.464 76.7105 919.235 79.0285L920.23 79.1266ZM920.578 72C920.578 69.6122 920.463 67.2526 920.234 64.9212L919.239 65.0192C919.465 67.3174 919.578 69.6443 919.578 72H920.578ZM917.408 51.0465C916.702 48.802 915.879 46.5872 914.937 44.4022L914.019 44.7978C914.947 46.952 915.759 49.1348 916.454 51.3465L917.408 51.0465ZM914.941 44.4107C914.053 42.2396 913.08 40.1366 912.022 38.1017L911.134 38.5629C912.178 40.5703 913.138 42.6457 914.015 44.7893L914.941 44.4107ZM904.45 26.4544C903.001 24.6468 901.463 22.912 899.835 21.2501L899.121 21.9499C900.726 23.5881 902.242 25.298 903.669 27.0797L904.45 26.4544ZM899.842 21.2575C898.258 19.5719 896.601 17.9749 894.873 16.4667L894.215 17.2203C895.919 18.7066 897.552 20.2807 899.114 21.9425L899.842 21.2575ZM883.631 8.48117C881.651 7.34974 879.602 6.30422 877.484 5.34457L877.072 6.25543C879.162 7.20244 881.183 8.23378 883.135 9.34941L883.631 8.48117ZM877.484 5.34457C875.327 4.36705 873.136 3.51202 870.91 2.77959L870.598 3.72947C872.789 4.45057 874.947 5.29253 877.072 6.25543L877.484 5.34457ZM857.124 -0.145729C854.807 -0.381946 852.459 -0.499998 850.078 -0.499998V0.500002C852.426 0.500002 854.74 0.61641 857.022 0.849112L857.124 -0.145729ZM837.078 51.5H807.078V52.5H837.078V51.5ZM747.078 51.5H717.078V52.5H747.078V51.5ZM717.078 51.5C715.692 51.5 714.355 51.6161 713.067 51.8492L713.245 52.8332C714.47 52.6114 715.748 52.5 717.078 52.5V51.5ZM705.626 54.8718C704.536 55.6103 703.502 56.4689 702.525 57.4464L703.232 58.1535C704.167 57.2184 705.152 56.4008 706.187 55.6997L705.626 54.8718ZM702.525 57.4464C701.547 58.424 700.688 59.4577 699.95 60.5476L700.778 61.1085C701.479 60.0738 702.297 59.0887 703.232 58.1535L702.525 57.4464ZM696.927 67.9891C696.694 69.2766 696.578 70.6137 696.578 72H697.578C697.578 70.6697 697.69 69.3923 697.911 68.1672L696.927 67.9891ZM696.578 72C696.578 73.3862 696.694 74.7234 696.927 76.0109L697.911 75.8328C697.69 74.6077 697.578 73.3303 697.578 72H696.578ZM699.95 83.4524C700.688 84.5423 701.547 85.576 702.525 86.5536L703.232 85.8464C702.297 84.9113 701.479 83.9262 700.778 82.8914L699.95 83.4524ZM702.525 86.5536C703.502 87.5311 704.536 88.3897 705.626 89.1282L706.187 88.3003C705.152 87.5992 704.167 86.7816 703.232 85.8464L702.525 86.5536ZM713.067 92.1508C714.355 92.3839 715.692 92.5 717.078 92.5V91.5C715.748 91.5 714.47 91.3886 713.245 91.1668L713.067 92.1508ZM717.078 92.5H747.078V91.5H717.078V92.5ZM807.078 92.5H837.078V91.5H807.078V92.5ZM837.078 92.5C838.464 92.5 839.802 92.3839 841.089 92.1508L840.911 91.1668C839.686 91.3886 838.408 91.5 837.078 91.5V92.5ZM848.531 89.1282C849.62 88.3897 850.654 87.5311 851.632 86.5536L850.925 85.8464C849.989 86.7816 849.004 87.5992 847.97 88.3003L848.531 89.1282ZM851.632 86.5536C852.609 85.576 853.468 84.5423 854.206 83.4524L853.378 82.8914C852.677 83.9262 851.86 84.9113 850.925 85.8464L851.632 86.5536ZM857.229 76.0109C857.462 74.7234 857.578 73.3862 857.578 72H856.578C856.578 73.3303 856.467 74.6077 856.245 75.8328L857.229 76.0109ZM857.578 72C857.578 70.6137 857.462 69.2766 857.229 67.9891L856.245 68.1672C856.467 69.3923 856.578 70.6697 856.578 72H857.578ZM854.206 60.5476C853.468 59.4577 852.609 58.424 851.632 57.4464L850.925 58.1535C851.86 59.0887 852.677 60.0738 853.378 61.1085L854.206 60.5476ZM851.632 57.4464C850.654 56.4689 849.62 55.6103 848.531 54.8718L847.97 55.6997C849.004 56.4008 849.989 57.2184 850.925 58.1535L851.632 57.4464ZM841.089 51.8492C839.802 51.6161 838.464 51.5 837.078 51.5V52.5C838.408 52.5 839.686 52.6114 840.911 52.8332L841.089 51.8492ZM899.478 21.6L898.75 22.2849L898.757 22.2924L898.764 22.2998L899.478 21.6ZM914.478 44.6L913.553 44.9786L913.556 44.9872L913.56 44.9956L914.478 44.6ZM914.478 99.6L913.558 99.2094L913.555 99.2164L914.478 99.6ZM899.478 122.6L898.757 121.907L898.756 121.908L899.478 122.6ZM654.478 122.6L653.749 123.285L653.757 123.292L653.764 123.3L654.478 122.6ZM639.478 99.6L638.553 99.9786L638.556 99.9872L638.56 99.9956L639.478 99.6ZM639.478 44.6L638.558 44.2094L638.555 44.2164L639.478 44.6ZM654.478 21.6L653.757 20.9075L653.756 20.9078L654.478 21.6ZM850.078 -1H813.578V1H850.078V-1ZM740.578 -1H704.078V1H740.578V-1ZM704.078 -1C701.681 -1 699.316 -0.881123 696.982 -0.64315L697.185 1.34653C699.45 1.11559 701.747 1 704.078 1V-1ZM683.09 2.30465C680.847 3.04275 678.639 3.90431 676.465 4.88915L677.291 6.71085C679.4 5.75527 681.541 4.91985 683.715 4.20441L683.09 2.30465ZM676.465 4.88915C674.325 5.85887 672.251 6.91585 670.242 8.06017L671.232 9.79801C673.186 8.68467 675.206 7.65559 677.291 6.71085L676.465 4.88915ZM658.829 16.1016C657.07 17.615 655.38 19.217 653.757 20.9075L655.2 22.2925C656.779 20.6474 658.424 19.0892 660.134 17.6176L658.829 16.1016ZM653.756 20.9078C652.141 22.5916 650.609 24.3497 649.16 26.1819L650.729 27.4225C652.139 25.6401 653.629 23.9304 655.2 22.2925L653.756 20.9078ZM641.551 37.8978C640.476 39.9344 639.479 42.0383 638.558 44.2094L640.399 44.9905C641.298 42.8698 642.272 40.8167 643.32 38.831L641.551 37.8978ZM638.555 44.2164C637.639 46.4217 636.837 48.6572 636.151 50.923L638.065 51.5029C638.732 49.3012 639.511 47.1282 640.402 44.9836L638.555 44.2164ZM633.411 64.8881C633.189 67.2309 633.078 69.6016 633.078 72H635.078C635.078 69.6633 635.186 67.3556 635.402 65.0768L633.411 64.8881ZM633.078 72C633.078 74.4108 633.19 76.7975 633.414 79.16L635.405 78.971C635.187 76.6723 635.078 74.3487 635.078 72H633.078ZM636.16 93.2198C636.844 95.4985 637.641 97.7515 638.553 99.9786L640.404 99.2214C639.517 97.0533 638.741 94.8611 638.076 92.6449L636.16 93.2198ZM638.56 99.9956C639.489 102.154 640.497 104.251 641.583 106.288L643.348 105.347C642.288 103.36 641.305 101.313 640.397 99.2044L638.56 99.9956ZM649.195 117.987C650.632 119.817 652.15 121.583 653.749 123.285L655.207 121.915C653.648 120.257 652.168 118.536 650.768 116.752L649.195 117.987ZM653.764 123.3C655.393 124.963 657.091 126.542 658.858 128.035L660.149 126.508C658.431 125.055 656.779 123.519 655.192 121.9L653.764 123.3ZM670.267 135.966C672.268 137.097 674.334 138.145 676.465 139.111L677.291 137.289C675.213 136.347 673.199 135.326 671.251 134.225L670.267 135.966ZM676.465 139.111C678.639 140.096 680.847 140.957 683.09 141.695L683.715 139.796C681.541 139.08 679.4 138.245 677.291 137.289L676.465 139.111ZM696.982 144.643C699.316 144.881 701.681 145 704.078 145V143C701.747 143 699.45 142.884 697.185 142.653L696.982 144.643ZM704.078 145H740.578V143H704.078V145ZM813.578 145H850.078V143H813.578V145ZM850.078 145C852.475 145 854.841 144.881 857.174 144.643L856.971 142.653C854.707 142.884 852.409 143 850.078 143V145ZM871.067 141.695C873.309 140.957 875.517 140.096 877.691 139.111L876.865 137.289C874.757 138.245 872.615 139.08 870.441 139.796L871.067 141.695ZM877.691 139.111C879.814 138.149 881.868 137.105 883.854 135.979L882.868 134.24C880.935 135.335 878.935 136.352 876.865 137.289L877.691 139.111ZM895.172 128.047C896.921 126.548 898.597 124.963 900.2 123.292L898.756 121.908C897.199 123.532 895.57 125.072 893.871 126.529L895.172 128.047ZM900.2 123.292C901.823 121.6 903.358 119.846 904.805 118.027L903.239 116.782C901.832 118.552 900.338 120.26 898.757 121.907L900.2 123.292ZM912.434 106.315C913.51 104.266 914.499 102.155 915.402 99.9836L913.555 99.2164C912.675 101.334 911.711 103.39 910.663 105.385L912.434 106.315ZM915.399 99.9905C916.342 97.7681 917.167 95.5199 917.876 93.2458L915.966 92.651C915.278 94.861 914.475 97.0471 913.558 99.2094L915.399 99.9905ZM920.728 79.1757C920.961 76.808 921.078 74.4161 921.078 72H919.078C919.078 74.3516 918.965 76.678 918.738 78.9794L920.728 79.1757ZM921.078 72C921.078 69.5962 920.963 67.2202 920.732 64.8722L918.741 65.0682C918.966 67.3498 919.078 69.6603 919.078 72H921.078ZM917.885 50.8965C917.174 48.6356 916.344 46.4049 915.397 44.2044L913.56 44.9956C914.481 47.1343 915.287 49.3012 915.977 51.4965L917.885 50.8965ZM915.404 44.2214C914.51 42.0365 913.53 39.9197 912.465 37.871L910.691 38.7936C911.727 40.7871 912.681 42.8488 913.553 44.9786L915.404 44.2214ZM904.84 26.1418C903.381 24.3211 901.832 22.5739 900.193 20.9002L898.764 22.2998C900.357 23.9262 901.862 25.6237 903.279 27.3923L904.84 26.1418ZM900.207 20.9151C898.611 19.2175 896.943 17.6091 895.201 16.09L893.886 17.597C895.578 19.0724 897.199 20.635 898.75 22.2849L900.207 20.9151ZM883.879 8.04706C881.886 6.90772 879.823 5.85511 877.691 4.88915L876.865 6.71085C878.941 7.65154 880.949 8.6758 882.887 9.78353L883.879 8.04706ZM877.691 4.88915C875.517 3.90431 873.309 3.04275 871.067 2.30465L870.441 4.20441C872.615 4.91985 874.757 5.75527 876.865 6.71085L877.691 4.88915ZM857.174 -0.64315C854.841 -0.881123 852.475 -1 850.078 -1V1C852.409 1 854.707 1.11559 856.971 1.34653L857.174 -0.64315ZM837.078 51H807.078V53H837.078V51ZM747.078 51H717.078V53H747.078V51ZM717.078 51C715.664 51 714.297 51.1184 712.978 51.3572L713.334 53.3252C714.528 53.109 715.776 53 717.078 53V51ZM705.345 54.4579C704.228 55.2151 703.17 56.0941 702.171 57.0929L703.585 58.5071C704.499 57.5931 705.46 56.7961 706.467 56.1136L705.345 54.4579ZM702.171 57.0929C701.172 58.0916 700.293 59.1496 699.536 60.2672L701.192 61.389C701.874 60.3818 702.671 59.4211 703.585 58.5071L702.171 57.0929ZM696.435 67.9C696.197 69.2187 696.078 70.5858 696.078 72H698.078C698.078 70.6977 698.187 69.4502 698.403 68.2563L696.435 67.9ZM696.078 72C696.078 73.4142 696.197 74.7813 696.435 76.1L698.403 75.7437C698.187 74.5498 698.078 73.3023 698.078 72H696.078ZM699.536 83.7328C700.293 84.8504 701.172 85.9084 702.171 86.9071L703.585 85.4929C702.671 84.5789 701.874 83.6182 701.192 82.611L699.536 83.7328ZM702.171 86.9071C703.17 87.9058 704.228 88.7849 705.345 89.5421L706.467 87.8864C705.46 87.2039 704.499 86.4068 703.585 85.4929L702.171 86.9071ZM712.978 92.6428C714.297 92.8816 715.664 93 717.078 93V91C715.776 91 714.528 90.891 713.334 90.6748L712.978 92.6428ZM717.078 93H747.078V91H717.078V93ZM807.078 93H837.078V91H807.078V93ZM837.078 93C838.492 93 839.859 92.8816 841.178 92.6428L840.822 90.6748C839.628 90.891 838.38 91 837.078 91V93ZM848.811 89.5421C849.929 88.7849 850.986 87.9058 851.985 86.9071L850.571 85.4929C849.657 86.4068 848.696 87.2039 847.689 87.8864L848.811 89.5421ZM851.985 86.9071C852.984 85.9084 853.863 84.8504 854.62 83.7328L852.965 82.611C852.282 83.6182 851.485 84.5789 850.571 85.4929L851.985 86.9071ZM857.721 76.1C857.96 74.7813 858.078 73.4142 858.078 72H856.078C856.078 73.3023 855.969 74.5498 855.753 75.7437L857.721 76.1ZM858.078 72C858.078 70.5858 857.96 69.2187 857.721 67.9L855.753 68.2563C855.969 69.4502 856.078 70.6977 856.078 72H858.078ZM854.62 60.2672C853.863 59.1496 852.984 58.0916 851.985 57.0929L850.571 58.5071C851.485 59.4211 852.282 60.3818 852.965 61.389L854.62 60.2672ZM851.985 57.0929C850.986 56.0941 849.929 55.2151 848.811 54.4579L847.689 56.1136C848.696 56.7961 849.657 57.5931 850.571 58.5071L851.985 57.0929ZM841.178 51.3572C839.859 51.1184 838.492 51 837.078 51V53C838.38 53 839.628 53.109 840.822 53.3252L841.178 51.3572ZM1218.53 99.6L1218.06 99.4047V99.4082L1218.53 99.6ZM978.525 122.6L978.161 122.943L978.168 122.95L978.525 122.6ZM963.525 99.6L963.062 99.7893L963.066 99.7978L963.525 99.6ZM958.125 2V1.5H957.625V2H958.125ZM1021.33 2H1021.83V1.5H1021.33V2ZM1160.93 2V1.5H1160.43V2H1160.93ZM1224.13 2H1224.63V1.5H1224.13V2ZM1223.63 72C1223.63 74.3677 1223.51 76.7105 1223.28 79.0285L1224.28 79.1266C1224.51 76.7755 1224.63 74.4 1224.63 72H1223.63ZM1220.49 92.7997C1219.8 95.0257 1218.99 97.2274 1218.06 99.4047L1218.99 99.7953C1219.92 97.5879 1220.74 95.3552 1221.45 93.0971L1220.49 92.7997ZM1218.06 99.4082C1217.18 101.539 1216.21 103.609 1215.15 105.618L1216.04 106.083C1217.11 104.047 1218.09 101.95 1218.99 99.7918L1218.06 99.4082ZM1207.68 117.093C1206.26 118.875 1204.76 120.596 1203.16 122.254L1203.89 122.946C1205.5 121.266 1207.02 119.522 1208.46 117.715L1207.68 117.093ZM1203.16 122.254C1201.6 123.89 1199.95 125.441 1198.24 126.908L1198.89 127.667C1200.63 126.179 1202.29 124.605 1203.89 122.946L1203.16 122.254ZM1187.16 134.675C1185.22 135.778 1183.2 136.801 1181.12 137.745L1181.53 138.655C1183.64 137.7 1185.68 136.663 1187.65 135.544L1187.16 134.675ZM1181.12 137.745C1178.99 138.707 1176.84 139.549 1174.64 140.271L1174.96 141.22C1177.18 140.488 1179.37 139.633 1181.53 138.655L1181.12 137.745ZM1161.07 143.151C1158.79 143.384 1156.47 143.5 1154.13 143.5V144.5C1156.51 144.5 1158.85 144.382 1161.17 144.146L1161.07 143.151ZM1154.13 143.5H1122.63V144.5H1154.13V143.5ZM1059.62 143.5H1028.13V144.5H1059.62V143.5ZM1028.13 143.5C1025.78 143.5 1023.46 143.384 1021.18 143.151L1021.08 144.146C1023.4 144.382 1025.74 144.5 1028.13 144.5V143.5ZM1007.61 140.271C1005.41 139.549 1003.26 138.707 1001.13 137.745L1000.72 138.655C1002.88 139.633 1005.07 140.488 1007.29 141.22L1007.61 140.271ZM1001.13 137.745C999.04 136.797 997.013 135.769 995.052 134.66L994.56 135.531C996.548 136.654 998.601 137.696 1000.72 138.655L1001.13 137.745ZM983.873 126.89C982.143 125.427 980.479 123.88 978.882 122.25L978.168 122.95C979.787 124.602 981.473 126.17 983.228 127.653L983.873 126.89ZM978.889 122.258C977.32 120.588 975.831 118.856 974.422 117.061L973.635 117.678C975.063 119.497 976.571 121.253 978.161 122.943L978.889 122.258ZM966.953 105.583C965.887 103.583 964.898 101.523 963.984 99.4022L963.066 99.7978C963.99 101.943 964.992 104.029 966.071 106.053L966.953 105.583ZM963.988 99.4107C963.095 97.2278 962.313 95.0205 961.644 92.7886L960.686 93.076C961.365 95.3392 962.157 97.5769 963.062 99.7893L963.988 99.4107ZM958.955 79.0182C958.735 76.7036 958.625 74.3642 958.625 72H957.625C957.625 74.3953 957.736 76.7662 957.959 79.1127L958.955 79.0182ZM958.625 72V54.5H957.625V72H958.625ZM958.625 19.5V2H957.625V19.5H958.625ZM958.125 2.5H973.925V1.5H958.125V2.5ZM1005.53 2.5H1021.33V1.5H1005.53V2.5ZM1020.83 2V19.5H1021.83V2H1020.83ZM1020.83 54.5V72H1021.83V54.5H1020.83ZM1020.83 72C1020.83 73.3862 1020.94 74.7234 1021.17 76.0109L1022.16 75.8328C1021.94 74.6077 1021.83 73.3303 1021.83 72H1020.83ZM1024.2 83.4524C1024.94 84.5423 1025.79 85.576 1026.77 86.5536L1027.48 85.8464C1026.54 84.9113 1025.73 83.9262 1025.02 82.8914L1024.2 83.4524ZM1026.77 86.5536C1027.75 87.5311 1028.78 88.3897 1029.87 89.1282L1030.43 88.3003C1029.4 87.5992 1028.41 86.7816 1027.48 85.8464L1026.77 86.5536ZM1037.31 92.1508C1038.6 92.3839 1039.94 92.5 1041.33 92.5V91.5C1039.99 91.5 1038.72 91.3886 1037.49 91.1668L1037.31 92.1508ZM1041.33 92.5H1066.23V91.5H1041.33V92.5ZM1116.03 92.5H1140.93V91.5H1116.03V92.5ZM1140.93 92.5C1142.31 92.5 1143.65 92.3839 1144.94 92.1508L1144.76 91.1668C1143.53 91.3886 1142.26 91.5 1140.93 91.5V92.5ZM1152.38 89.1282C1153.47 88.3897 1154.5 87.5311 1155.48 86.5536L1154.77 85.8464C1153.84 86.7816 1152.85 87.5992 1151.82 88.3003L1152.38 89.1282ZM1155.48 86.5536C1156.46 85.576 1157.31 84.5423 1158.05 83.4524L1157.23 82.8914C1156.52 83.9262 1155.71 84.9113 1154.77 85.8464L1155.48 86.5536ZM1161.08 76.0109C1161.31 74.7234 1161.43 73.3862 1161.43 72H1160.43C1160.43 73.3303 1160.31 74.6077 1160.09 75.8328L1161.08 76.0109ZM1161.43 72V54.5H1160.43V72H1161.43ZM1161.43 19.5V2H1160.43V19.5H1161.43ZM1160.93 2.5H1176.73V1.5H1160.93V2.5ZM1208.33 2.5H1224.13V1.5H1208.33V2.5ZM1223.63 2V19.5H1224.63V2H1223.63ZM1223.63 54.5V72H1224.63V54.5H1223.63ZM1218.53 99.6L1217.6 99.2094V99.2164L1218.53 99.6ZM978.525 122.6L977.796 123.285L977.803 123.292L977.811 123.3L978.525 122.6ZM963.525 99.6L962.599 99.9786L962.603 99.9872L962.607 99.9956L963.525 99.6ZM958.125 2V1H957.125V2H958.125ZM1021.33 2H1022.33V1H1021.33V2ZM1160.93 2V1H1159.93V2H1160.93ZM1224.13 2H1225.13V1H1224.13V2ZM1223.13 72C1223.13 74.3516 1223.01 76.678 1222.78 78.9794L1224.77 79.1757C1225.01 76.808 1225.13 74.4161 1225.13 72H1223.13ZM1220.01 92.651C1219.32 94.861 1218.52 97.0471 1217.6 99.2094L1219.45 99.9905C1220.39 97.7681 1221.21 95.5199 1221.92 93.2458L1220.01 92.651ZM1217.6 99.2164C1216.72 101.334 1215.76 103.39 1214.71 105.385L1216.48 106.315C1217.56 104.266 1218.55 102.155 1219.45 99.9836L1217.6 99.2164ZM1207.29 116.782C1205.88 118.552 1204.38 120.26 1202.8 121.907L1204.25 123.293C1205.87 121.601 1207.41 119.846 1208.85 118.027L1207.29 116.782ZM1202.8 121.907C1201.25 123.531 1199.62 125.072 1197.92 126.529L1199.22 128.047C1200.97 126.548 1202.64 124.964 1204.25 123.293L1202.8 121.907ZM1186.91 134.24C1184.98 135.335 1182.98 136.352 1180.91 137.289L1181.74 139.111C1183.86 138.149 1185.91 137.105 1187.9 135.979L1186.91 134.24ZM1180.91 137.289C1178.8 138.245 1176.66 139.08 1174.49 139.796L1175.11 141.695C1177.36 140.957 1179.56 140.096 1181.74 139.111L1180.91 137.289ZM1161.02 142.653C1158.75 142.884 1156.46 143 1154.13 143V145C1156.52 145 1158.89 144.881 1161.22 144.643L1161.02 142.653ZM1154.13 143H1122.63V145H1154.13V143ZM1059.62 143H1028.13V145H1059.62V143ZM1028.13 143C1025.79 143 1023.5 142.884 1021.23 142.653L1021.03 144.643C1023.36 144.881 1025.73 145 1028.13 145V143ZM1007.76 139.796C1005.59 139.08 1003.45 138.245 1001.34 137.289L1000.51 139.111C1002.69 140.096 1004.89 140.957 1007.14 141.695L1007.76 139.796ZM1001.34 137.289C999.26 136.347 997.246 135.326 995.298 134.225L994.314 135.966C996.315 137.097 998.381 138.145 1000.51 139.111L1001.34 137.289ZM984.196 126.508C982.478 125.055 980.825 123.519 979.239 121.9L977.811 123.3C979.44 124.963 981.138 126.542 982.905 128.035L984.196 126.508ZM979.254 121.915C977.695 120.257 976.215 118.536 974.815 116.752L973.242 117.987C974.679 119.817 976.197 121.583 977.796 123.285L979.254 121.915ZM967.394 105.347C966.335 103.36 965.352 101.313 964.443 99.2044L962.607 99.9956C963.536 102.154 964.544 104.251 965.629 106.288L967.394 105.347ZM964.451 99.2214C963.564 97.0533 962.788 94.8611 962.122 92.6449L960.207 93.2198C960.891 95.4985 961.688 97.7515 962.599 99.9786L964.451 99.2214ZM959.452 78.971C959.234 76.6723 959.125 74.3487 959.125 72H957.125C957.125 74.4108 957.237 76.7975 957.461 79.16L959.452 78.971ZM959.125 72V54.5H957.125V72H959.125ZM959.125 19.5V2H957.125V19.5H959.125ZM958.125 3H973.925V1H958.125V3ZM1005.53 3H1021.33V1H1005.53V3ZM1020.33 2V19.5H1022.33V2H1020.33ZM1020.33 54.5V72H1022.33V54.5H1020.33ZM1020.33 72C1020.33 73.4142 1020.44 74.7813 1020.68 76.1L1022.65 75.7437C1022.43 74.5498 1022.33 73.3023 1022.33 72H1020.33ZM1023.78 83.7328C1024.54 84.8504 1025.42 85.9084 1026.42 86.9071L1027.83 85.4929C1026.92 84.5789 1026.12 83.6182 1025.44 82.611L1023.78 83.7328ZM1026.42 86.9071C1027.42 87.9058 1028.47 88.7849 1029.59 89.5421L1030.71 87.8864C1029.71 87.2039 1028.75 86.4068 1027.83 85.4929L1026.42 86.9071ZM1037.22 92.6428C1038.54 92.8816 1039.91 93 1041.33 93V91C1040.02 91 1038.78 90.891 1037.58 90.6748L1037.22 92.6428ZM1041.33 93H1066.23V91H1041.33V93ZM1116.03 93H1140.93V91H1116.03V93ZM1140.93 93C1142.34 93 1143.71 92.8816 1145.03 92.6428L1144.67 90.6748C1143.47 90.891 1142.23 91 1140.93 91V93ZM1152.66 89.5421C1153.78 88.7849 1154.83 87.9058 1155.83 86.9071L1154.42 85.4929C1153.5 86.4068 1152.54 87.2039 1151.54 87.8864L1152.66 89.5421ZM1155.83 86.9071C1156.83 85.9084 1157.71 84.8504 1158.47 83.7328L1156.81 82.611C1156.13 83.6182 1155.33 84.5789 1154.42 85.4929L1155.83 86.9071ZM1161.57 76.1C1161.81 74.7813 1161.93 73.4142 1161.93 72H1159.93C1159.93 73.3023 1159.82 74.5498 1159.6 75.7437L1161.57 76.1ZM1161.93 72V54.5H1159.93V72H1161.93ZM1161.93 19.5V2H1159.93V19.5H1161.93ZM1160.93 3H1176.73V1H1160.93V3ZM1208.33 3H1224.13V1H1208.33V3ZM1223.13 2V19.5H1225.13V2H1223.13ZM1223.13 54.5V72H1225.13V54.5H1223.13ZM1367.36 50H1367.86V49.5H1367.36V50ZM1266.16 50H1265.66V50.5H1266.16V50ZM1266.16 2V1.5H1265.66V2H1266.16ZM1532.16 2H1532.66V1.5H1532.16V2ZM1532.16 50V50.5H1532.66V50H1532.16ZM1430.56 50V49.5H1430.06V50H1430.56ZM1430.56 142V142.5H1431.06V142H1430.56ZM1367.36 142H1366.86V142.5H1367.36V142ZM1367.36 49.5H1342.06V50.5H1367.36V49.5ZM1291.46 49.5H1266.16V50.5H1291.46V49.5ZM1266.66 50V38H1265.66V50H1266.66ZM1266.66 14V2H1265.66V14H1266.66ZM1266.16 2.5H1288.32V1.5H1266.16V2.5ZM1332.66 2.5H1376.99V1.5H1332.66V2.5ZM1421.32 2.5H1465.66V1.5H1421.32V2.5ZM1509.99 2.5H1532.16V1.5H1509.99V2.5ZM1531.66 2V14H1532.66V2H1531.66ZM1531.66 38V50H1532.66V38H1531.66ZM1532.16 49.5H1506.76V50.5H1532.16V49.5ZM1455.96 49.5H1430.56V50.5H1455.96V49.5ZM1430.06 50V73H1431.06V50H1430.06ZM1430.06 119V142H1431.06V119H1430.06ZM1430.56 141.5H1414.76V142.5H1430.56V141.5ZM1383.16 141.5H1367.36V142.5H1383.16V141.5ZM1367.86 142V119H1366.86V142H1367.86ZM1367.86 73V50H1366.86V73H1367.86ZM1367.36 50H1368.36V49H1367.36V50ZM1266.16 50H1265.16V51H1266.16V50ZM1266.16 2V1H1265.16V2H1266.16ZM1532.16 2H1533.16V1H1532.16V2ZM1532.16 50V51H1533.16V50H1532.16ZM1430.56 50V49H1429.56V50H1430.56ZM1430.56 142V143H1431.56V142H1430.56ZM1367.36 142H1366.36V143H1367.36V142ZM1367.36 49H1342.06V51H1367.36V49ZM1291.46 49H1266.16V51H1291.46V49ZM1267.16 50V38H1265.16V50H1267.16ZM1267.16 14V2H1265.16V14H1267.16ZM1266.16 3H1288.32V1H1266.16V3ZM1332.66 3H1376.99V1H1332.66V3ZM1421.32 3H1465.66V1H1421.32V3ZM1509.99 3H1532.16V1H1509.99V3ZM1531.16 2V14H1533.16V2H1531.16ZM1531.16 38V50H1533.16V38H1531.16ZM1532.16 49H1506.76V51H1532.16V49ZM1455.96 49H1430.56V51H1455.96V49ZM1429.56 50V73H1431.56V50H1429.56ZM1429.56 119V142H1431.56V119H1429.56ZM1430.56 141H1414.76V143H1430.56V141ZM1383.16 141H1367.36V143H1383.16V141ZM1368.36 142V119H1366.36V142H1368.36ZM1368.36 73V50H1366.36V73H1368.36ZM2.00022 166V165.5H1.50022V166H2.00022ZM86.4002 166L86.7887 165.685L86.6386 165.5H86.4002V166ZM164.2 262L163.812 262.315L164.2 262.794L164.588 262.315L164.2 262ZM242 166V165.5H241.762L241.612 165.685L242 166ZM329.6 166H330.1V165.5H329.6V166ZM329.6 306V306.5H330.1V306H329.6ZM266.4 306H265.9V306.5H266.4V306ZM266.4 223.8H266.9V222.389L266.012 223.485L266.4 223.8ZM199.8 306V306.5H200.038L200.188 306.315L199.8 306ZM128.6 306L128.212 306.315L128.362 306.5H128.6V306ZM65.2002 227.8L65.5886 227.485L64.7002 226.389V227.8H65.2002ZM65.2002 306V306.5H65.7002V306H65.2002ZM2.00022 306H1.50022V306.5H2.00022V306ZM1.50022 166V201H2.50022V166H1.50022ZM1.50022 271V306H2.50022V271H1.50022ZM2.00022 306.5H17.8002V305.5H2.00022V306.5ZM49.4002 306.5H65.2002V305.5H49.4002V306.5ZM65.7002 306V286.45H64.7002V306H65.7002ZM65.7002 247.35V227.8H64.7002V247.35H65.7002ZM64.8118 228.115L80.6618 247.665L81.4386 247.035L65.5886 227.485L64.8118 228.115ZM112.362 286.765L128.212 306.315L128.988 305.685L113.138 286.135L112.362 286.765ZM128.6 306.5H146.4V305.5H128.6V306.5ZM182 306.5H199.8V305.5H182V306.5ZM200.188 306.315L216.839 285.765L216.062 285.135L199.412 305.685L200.188 306.315ZM250.139 244.665L266.789 224.115L266.012 223.485L249.362 244.035L250.139 244.665ZM265.9 223.8V244.35H266.9V223.8H265.9ZM265.9 285.45V306H266.9V285.45H265.9ZM266.4 306.5H282.2V305.5H266.4V306.5ZM313.8 306.5H329.6V305.5H313.8V306.5ZM330.1 306V271H329.1V306H330.1ZM330.1 201V166H329.1V201H330.1ZM329.6 165.5H307.7V166.5H329.6V165.5ZM263.9 165.5H242V166.5H263.9V165.5ZM241.612 165.685L222.162 189.685L222.938 190.315L242.388 166.315L241.612 165.685ZM183.262 237.685L163.812 261.685L164.588 262.315L184.038 238.315L183.262 237.685ZM164.588 261.685L145.138 237.685L144.362 238.315L163.812 262.315L164.588 261.685ZM106.238 189.685L86.7887 165.685L86.0117 166.315L105.462 190.315L106.238 189.685ZM86.4002 165.5H65.3002V166.5H86.4002V165.5ZM23.1002 165.5H2.00022V166.5H23.1002V165.5ZM2.00022 166V165H1.00022V166H2.00022ZM86.4002 166L87.1771 165.37L86.8769 165H86.4002V166ZM164.2 262L163.423 262.63L164.2 263.588L164.977 262.63L164.2 262ZM242 166V165H241.523L241.223 165.37L242 166ZM329.6 166H330.6V165H329.6V166ZM329.6 306V307H330.6V306H329.6ZM266.4 306H265.4V307H266.4V306ZM266.4 223.8H267.4V220.977L265.623 223.17L266.4 223.8ZM199.8 306V307H200.277L200.577 306.63L199.8 306ZM128.6 306L127.823 306.63L128.123 307H128.6V306ZM65.2002 227.8L65.977 227.17L64.2002 224.979V227.8H65.2002ZM65.2002 306V307H66.2002V306H65.2002ZM2.00022 306H1.00022V307H2.00022V306ZM1.00022 166V201H3.00022V166H1.00022ZM1.00022 271V306H3.00022V271H1.00022ZM2.00022 307H17.8002V305H2.00022V307ZM49.4002 307H65.2002V305H49.4002V307ZM66.2002 306V286.45H64.2002V306H66.2002ZM66.2002 247.35V227.8H64.2002V247.35H66.2002ZM64.4234 228.43L80.2734 247.98L81.827 246.72L65.977 227.17L64.4234 228.43ZM111.973 287.08L127.823 306.63L129.377 305.37L113.527 285.82L111.973 287.08ZM128.6 307H146.4V305H128.6V307ZM182 307H199.8V305H182V307ZM200.577 306.63L217.227 286.08L215.673 284.82L199.023 305.37L200.577 306.63ZM250.527 244.98L267.177 224.43L265.623 223.17L248.973 243.72L250.527 244.98ZM265.4 223.8V244.35H267.4V223.8H265.4ZM265.4 285.45V306H267.4V285.45H265.4ZM266.4 307H282.2V305H266.4V307ZM313.8 307H329.6V305H313.8V307ZM330.6 306V271H328.6V306H330.6ZM330.6 201V166H328.6V201H330.6ZM329.6 165H307.7V167H329.6V165ZM263.9 165H242V167H263.9V165ZM241.223 165.37L221.773 189.37L223.327 190.63L242.777 166.63L241.223 165.37ZM182.873 237.37L163.423 261.37L164.977 262.63L184.427 238.63L182.873 237.37ZM164.977 261.37L145.527 237.37L143.973 238.63L163.423 262.63L164.977 261.37ZM106.627 189.37L87.1771 165.37L85.6233 166.63L105.073 190.63L106.627 189.37ZM86.4002 165H65.3002V167H86.4002V165ZM23.1002 165H2.00022V167H23.1002V165ZM371.555 166V165.5H371.055V166H371.555ZM631.555 166H632.055V165.5H631.555V166ZM631.555 202V202.5H632.055V202H631.555ZM434.755 202V201.5H434.255V202H434.755ZM434.755 218H434.255V218.5H434.755V218ZM631.555 218H632.055V217.5H631.555V218ZM631.555 254V254.5H632.055V254H631.555ZM434.755 254V253.5H434.255V254H434.755ZM434.755 270H434.255V270.5H434.755V270ZM631.555 270H632.055V269.5H631.555V270ZM631.555 306V306.5H632.055V306H631.555ZM371.555 306H371.055V306.5H371.555V306ZM371.055 166V201H372.055V166H371.055ZM371.055 271V306H372.055V271H371.055ZM371.555 306.5H393.221V305.5H371.555V306.5ZM436.555 306.5H479.888V305.5H436.555V306.5ZM523.221 306.5H566.555V305.5H523.221V306.5ZM609.888 306.5H631.555V305.5H609.888V306.5ZM632.055 306V297H631.055V306H632.055ZM632.055 279V270H631.055V279H632.055ZM631.555 269.5H606.955V270.5H631.555V269.5ZM557.755 269.5H508.555V270.5H557.755V269.5ZM459.355 269.5H434.755V270.5H459.355V269.5ZM435.255 270V266H434.255V270H435.255ZM435.255 258V254H434.255V258H435.255ZM434.755 254.5H459.355V253.5H434.755V254.5ZM508.555 254.5H557.755V253.5H508.555V254.5ZM606.955 254.5H631.555V253.5H606.955V254.5ZM632.055 254V245H631.055V254H632.055ZM632.055 227V218H631.055V227H632.055ZM631.555 217.5H606.955V218.5H631.555V217.5ZM557.755 217.5H508.555V218.5H557.755V217.5ZM459.355 217.5H434.755V218.5H459.355V217.5ZM435.255 218V214H434.255V218H435.255ZM435.255 206V202H434.255V206H435.255ZM434.755 202.5H459.355V201.5H434.755V202.5ZM508.555 202.5H557.755V201.5H508.555V202.5ZM606.955 202.5H631.555V201.5H606.955V202.5ZM632.055 202V193H631.055V202H632.055ZM632.055 175V166H631.055V175H632.055ZM631.555 165.5H609.888V166.5H631.555V165.5ZM566.555 165.5H523.221V166.5H566.555V165.5ZM479.888 165.5H436.555V166.5H479.888V165.5ZM393.221 165.5H371.555V166.5H393.221V165.5ZM371.555 166V165H370.555V166H371.555ZM631.555 166H632.555V165H631.555V166ZM631.555 202V203H632.555V202H631.555ZM434.755 202V201H433.755V202H434.755ZM434.755 218H433.755V219H434.755V218ZM631.555 218H632.555V217H631.555V218ZM631.555 254V255H632.555V254H631.555ZM434.755 254V253H433.755V254H434.755ZM434.755 270H433.755V271H434.755V270ZM631.555 270H632.555V269H631.555V270ZM631.555 306V307H632.555V306H631.555ZM371.555 306H370.555V307H371.555V306ZM370.555 166V201H372.555V166H370.555ZM370.555 271V306H372.555V271H370.555ZM371.555 307H393.221V305H371.555V307ZM436.555 307H479.888V305H436.555V307ZM523.221 307H566.555V305H523.221V307ZM609.888 307H631.555V305H609.888V307ZM632.555 306V297H630.555V306H632.555ZM632.555 279V270H630.555V279H632.555ZM631.555 269H606.955V271H631.555V269ZM557.755 269H508.555V271H557.755V269ZM459.355 269H434.755V271H459.355V269ZM435.755 270V266H433.755V270H435.755ZM435.755 258V254H433.755V258H435.755ZM434.755 255H459.355V253H434.755V255ZM508.555 255H557.755V253H508.555V255ZM606.955 255H631.555V253H606.955V255ZM632.555 254V245H630.555V254H632.555ZM632.555 227V218H630.555V227H632.555ZM631.555 217H606.955V219H631.555V217ZM557.755 217H508.555V219H557.755V217ZM459.355 217H434.755V219H459.355V217ZM435.755 218V214H433.755V218H435.755ZM435.755 206V202H433.755V206H435.755ZM434.755 203H459.355V201H434.755V203ZM508.555 203H557.755V201H508.555V203ZM606.955 203H631.555V201H606.955V203ZM632.555 202V193H630.555V202H632.555ZM632.555 175V166H630.555V175H632.555ZM631.555 165H609.888V167H631.555V165ZM566.555 165H523.221V167H566.555V165ZM479.888 165H436.555V167H479.888V165ZM393.221 165H371.555V167H393.221V165Z" fill="#B2B2B1"/>
</g>
</g>
</svg>
