<svg width="1531" height="306" viewBox="0 0 1531 306" fill="none" xmlns="http://www.w3.org/2000/svg">
<mask id="path-1-outside-1_61_198" maskUnits="userSpaceOnUse" x="-3" y="-1" width="1535" height="308" fill="black">
<rect fill="white" x="-3" y="-1" width="1535" height="308"/>
<path d="M298 142H226.8L210.6 122H87.4L71.2 142H5.66244e-07L113.4 1.99999H184.6L298 142ZM178.2 82L149 46L119.8 82H178.2ZM332.055 1.99999H548.055C555.388 1.99999 562.121 2.86666 568.255 4.59999C574.388 6.33333 579.655 8.93333 584.055 12.4C588.455 15.7333 591.855 19.8667 594.255 24.8C596.788 29.7333 598.055 35.4667 598.055 42C598.055 48.8 596.521 54.7333 593.455 59.8C590.521 64.8667 586.255 68.9333 580.655 72C586.255 75.0667 590.521 79.1333 593.455 84.2C596.521 89.2667 598.055 95.2 598.055 102C598.055 108.533 596.788 114.267 594.255 119.2C591.855 124.133 588.455 128.333 584.055 131.8C579.655 135.133 574.388 137.667 568.255 139.4C562.121 141.133 555.388 142 548.055 142H332.055V1.99999ZM395.255 54H526.055C531.921 54 534.855 51.3333 534.855 46C534.855 40.6667 531.921 38 526.055 38H395.255V54ZM526.055 106C531.921 106 534.855 103.333 534.855 98C534.855 92.6667 531.921 90 526.055 90H395.255V106H526.055ZM848.078 -7.62939e-06C857.678 -7.62939e-06 866.745 1.93332 875.278 5.79999C883.811 9.66666 891.211 14.9333 897.478 21.6C903.878 28.1333 908.878 35.8 912.478 44.6C916.211 53.2667 918.078 62.4 918.078 72C918.078 81.6 916.211 90.8 912.478 99.6C908.878 108.267 903.878 115.933 897.478 122.6C891.211 129.133 883.811 134.333 875.278 138.2C866.745 142.067 857.678 144 848.078 144H702.078C692.478 144 683.411 142.067 674.878 138.2C666.345 134.333 658.878 129.133 652.478 122.6C646.211 115.933 641.211 108.267 637.478 99.6C633.878 90.8 632.078 81.6 632.078 72C632.078 62.4 633.878 53.2667 637.478 44.6C641.211 35.8 646.211 28.1333 652.478 21.6C658.878 14.9333 666.345 9.66666 674.878 5.79999C683.411 1.93332 692.478 -7.62939e-06 702.078 -7.62939e-06H848.078ZM835.078 52H715.078C709.478 52 704.745 53.9333 700.878 57.8C697.011 61.6667 695.078 66.4 695.078 72C695.078 77.6 697.011 82.3333 700.878 86.2C704.745 90.0667 709.478 92 715.078 92H835.078C840.678 92 845.411 90.0667 849.278 86.2C853.145 82.3333 855.078 77.6 855.078 72C855.078 66.4 853.145 61.6667 849.278 57.8C845.411 53.9333 840.678 52 835.078 52ZM1222.13 72C1222.13 81.6 1220.26 90.8 1216.53 99.6C1212.93 108.267 1207.93 115.933 1201.53 122.6C1195.26 129.133 1187.86 134.333 1179.33 138.2C1170.79 142.067 1161.73 144 1152.13 144H1026.13C1016.53 144 1007.46 142.067 998.925 138.2C990.392 134.333 982.925 129.133 976.525 122.6C970.258 115.933 965.258 108.267 961.525 99.6C957.925 90.8 956.125 81.6 956.125 72V1.99999H1019.33V72C1019.33 77.6 1021.26 82.3333 1025.13 86.2C1028.99 90.0667 1033.73 92 1039.33 92H1138.93C1144.53 92 1149.26 90.0667 1153.13 86.2C1156.99 82.3333 1158.93 77.6 1158.93 72V1.99999H1222.13V72ZM1365.36 50H1264.16V1.99999H1530.16V50H1428.56V142H1365.36V50ZM5.66244e-07 166H84.4L162.2 262L240 166H327.6V306H264.4V223.8L197.8 306H126.6L63.2 227.8V306H5.66244e-07V166ZM369.555 166H629.555V202H432.755V218H629.555V254H432.755V270H629.555V306H369.555V166Z"/>
</mask>
<path d="M298 142V142.5H299.048L298.389 141.685L298 142ZM226.8 142L226.411 142.315L226.562 142.5H226.8V142ZM210.6 122L210.989 121.685L210.838 121.5H210.6V122ZM87.4 122V121.5H87.1616L87.0115 121.685L87.4 122ZM71.2 142V142.5H71.4385L71.5885 142.315L71.2 142ZM9.53674e-07 142L-0.388531 141.685L-1.04845 142.5H9.53674e-07V142ZM113.4 1.99999V1.49999H113.162L113.011 1.68528L113.4 1.99999ZM184.6 1.99999L184.989 1.68528L184.838 1.49999H184.6V1.99999ZM178.2 82V82.5H179.249L178.588 81.685L178.2 82ZM149 46L149.388 45.685L149 45.2063L148.612 45.685L149 46ZM119.8 82L119.412 81.685L118.751 82.5H119.8V82ZM298.389 141.685L284.214 124.185L283.436 124.815L297.611 142.315L298.389 141.685ZM255.864 89.1853L227.514 54.1853L226.736 54.8147L255.086 89.8147L255.864 89.1853ZM199.164 19.1853L184.989 1.68528L184.211 2.3147L198.386 19.8147L199.164 19.1853ZM184.6 1.49999H166.8V2.49999H184.6V1.49999ZM131.2 1.49999H113.4V2.49999H131.2V1.49999ZM113.011 1.68528L98.8365 19.1853L99.6135 19.8147L113.789 2.3147L113.011 1.68528ZM70.4865 54.1853L42.1365 89.1853L42.9135 89.8147L71.2635 54.8147L70.4865 54.1853ZM13.7865 124.185L-0.388531 141.685L0.388533 142.315L14.5635 124.815L13.7865 124.185ZM9.53674e-07 142.5H17.8V141.5H9.53674e-07V142.5ZM53.4 142.5H71.2V141.5H53.4V142.5ZM71.5885 142.315L75.6385 137.315L74.8615 136.685L70.8115 141.685L71.5885 142.315ZM83.7385 127.315L87.7885 122.315L87.0115 121.685L82.9615 126.685L83.7385 127.315ZM87.4 122.5H118.2V121.5H87.4V122.5ZM179.8 122.5H210.6V121.5H179.8V122.5ZM210.211 122.315L214.261 127.315L215.039 126.685L210.989 121.685L210.211 122.315ZM222.361 137.315L226.411 142.315L227.189 141.685L223.139 136.685L222.361 137.315ZM226.8 142.5H244.6V141.5H226.8V142.5ZM280.2 142.5H298V141.5H280.2V142.5ZM178.2 81.5H163.6V82.5H178.2V81.5ZM134.4 81.5H119.8V82.5H134.4V81.5ZM120.188 82.315L127.488 73.315L126.712 72.685L119.412 81.685L120.188 82.315ZM142.088 55.315L149.388 46.315L148.612 45.685L141.312 54.685L142.088 55.315ZM148.612 46.315L155.912 55.315L156.688 54.685L149.388 45.685L148.612 46.315ZM170.512 73.315L177.812 82.315L178.588 81.685L171.288 72.685L170.512 73.315ZM298 142V143H300.097L298.777 141.371L298 142ZM226.8 142L226.023 142.629L226.323 143H226.8V142ZM210.6 122L211.377 121.371L211.077 121H210.6V122ZM87.4 122V121H86.9231L86.6229 121.371L87.4 122ZM71.2 142V143H71.6769L71.9771 142.629L71.2 142ZM9.53674e-07 142L-0.777063 141.371L-2.09689 143H9.53674e-07V142ZM113.4 1.99999V0.99999H112.923L112.623 1.37057L113.4 1.99999ZM184.6 1.99999L185.377 1.37057L185.077 0.99999H184.6V1.99999ZM178.2 82V83H180.299L178.977 81.3701L178.2 82ZM149 46L149.777 45.3701L149 44.4126L148.223 45.3701L149 46ZM119.8 82L119.023 81.3701L117.701 83H119.8V82ZM298.777 141.371L284.602 123.871L283.048 125.129L297.223 142.629L298.777 141.371ZM256.252 88.8706L227.902 53.8706L226.348 55.1294L254.698 90.1294L256.252 88.8706ZM199.552 18.8706L185.377 1.37057L183.823 2.62941L197.998 20.1294L199.552 18.8706ZM184.6 0.99999H166.8V2.99999H184.6V0.99999ZM131.2 0.99999H113.4V2.99999H131.2V0.99999ZM112.623 1.37057L98.4479 18.8706L100.002 20.1294L114.177 2.62941L112.623 1.37057ZM70.0979 53.8706L41.7479 88.8706L43.3021 90.1294L71.6521 55.1294L70.0979 53.8706ZM13.3979 123.871L-0.777063 141.371L0.777064 142.629L14.9521 125.129L13.3979 123.871ZM9.53674e-07 143H17.8V141H9.53674e-07V143ZM53.4 143H71.2V141H53.4V143ZM71.9771 142.629L76.0271 137.629L74.4729 136.371L70.4229 141.371L71.9771 142.629ZM84.1271 127.629L88.1771 122.629L86.6229 121.371L82.5729 126.371L84.1271 127.629ZM87.4 123H118.2V121H87.4V123ZM179.8 123H210.6V121H179.8V123ZM209.823 122.629L213.873 127.629L215.427 126.371L211.377 121.371L209.823 122.629ZM221.973 137.629L226.023 142.629L227.577 141.371L223.527 136.371L221.973 137.629ZM226.8 143H244.6V141H226.8V143ZM280.2 143H298V141H280.2V143ZM178.2 81H163.6V83H178.2V81ZM134.4 81H119.8V83H134.4V81ZM120.577 82.6299L127.877 73.6299L126.323 72.3701L119.023 81.3701L120.577 82.6299ZM142.477 55.6299L149.777 46.6299L148.223 45.3701L140.923 54.3701L142.477 55.6299ZM148.223 46.6299L155.523 55.6299L157.077 54.3701L149.777 45.3701L148.223 46.6299ZM170.123 73.6299L177.423 82.6299L178.977 81.3701L171.677 72.3701L170.123 73.6299ZM332.055 1.99999V1.49999H331.555V1.99999H332.055ZM584.055 12.4L583.745 12.7928L583.753 12.7985L584.055 12.4ZM594.255 24.8L593.805 25.0188L593.81 25.0284L594.255 24.8ZM593.455 59.8L593.027 59.541L593.022 59.5495L593.455 59.8ZM580.655 72L580.415 71.5614L579.614 72L580.415 72.4385L580.655 72ZM593.455 84.2L593.022 84.4506L593.027 84.4589L593.455 84.2ZM594.255 119.2L593.81 118.972L593.805 118.981L594.255 119.2ZM584.055 131.8L584.357 132.199L584.364 132.193L584.055 131.8ZM568.255 139.4L568.391 139.881L568.255 139.4ZM332.055 142H331.555V142.5H332.055V142ZM395.255 54H394.755V54.5H395.255V54ZM395.255 38V37.5H394.755V38H395.255ZM395.255 90V89.5H394.755V90H395.255ZM395.255 106H394.755V106.5H395.255V106ZM331.555 1.99999V37H332.555V1.99999H331.555ZM331.555 107V142H332.555V107H331.555ZM332.055 142.5H359.055V141.5H332.055V142.5ZM413.055 142.5H467.055V141.5H413.055V142.5ZM521.055 142.5H548.055V141.5H521.055V142.5ZM548.055 142.5C549.799 142.5 551.511 142.451 553.189 142.354L553.131 141.355C551.473 141.452 549.781 141.5 548.055 141.5V142.5ZM563.386 141.079C565.095 140.74 566.764 140.341 568.391 139.881L568.119 138.919C566.518 139.371 564.876 139.764 563.192 140.098L563.386 141.079ZM568.391 139.881C569.849 139.469 571.259 139.012 572.621 138.51L572.275 137.572C570.938 138.064 569.553 138.514 568.119 138.919L568.391 139.881ZM580.659 134.694C581.952 133.918 583.184 133.087 584.357 132.199L583.753 131.401C582.61 132.267 581.407 133.079 580.145 133.836L580.659 134.694ZM584.364 132.193C585.462 131.328 586.499 130.417 587.475 129.461L586.775 128.747C585.826 129.677 584.816 130.564 583.745 131.407L584.364 132.193ZM592.686 123.036C593.422 121.877 594.095 120.671 594.704 119.419L593.805 118.981C593.212 120.2 592.558 121.373 591.842 122.5L592.686 123.036ZM594.699 119.428C595.381 118.102 595.972 116.719 596.472 115.279L595.528 114.951C595.042 116.347 594.469 117.687 593.81 118.972L594.699 119.428ZM598.346 106.488C598.485 105.034 598.555 103.538 598.555 102H597.555C597.555 103.508 597.487 104.972 597.35 106.392L598.346 106.488ZM598.555 102C598.555 100.386 598.469 98.8186 598.298 97.2981L597.304 97.4101C597.471 98.8913 597.555 100.421 597.555 102H598.555ZM596.009 88.1633C595.407 86.6959 594.698 85.2884 593.882 83.9411L593.027 84.4589C593.815 85.7617 594.501 87.1229 595.084 88.5428L596.009 88.1633ZM593.887 83.9495C593.124 82.6303 592.271 81.3775 591.329 80.1913L590.546 80.8132C591.457 81.9609 592.283 83.1732 593.022 84.4505L593.887 83.9495ZM584.738 73.9679C583.534 73.1069 582.252 72.3048 580.895 71.5614L580.415 72.4385C581.739 73.1637 582.986 73.9447 584.157 74.7815L584.738 73.9679ZM580.895 72.4385C582.252 71.6952 583.534 70.8931 584.738 70.0321L584.157 69.2185C582.986 70.0553 581.739 70.8363 580.415 71.5614L580.895 72.4385ZM591.329 63.8087C592.271 62.6225 593.124 61.3697 593.887 60.0505L593.022 59.5495C592.283 60.8267 591.457 62.0391 590.546 63.1868L591.329 63.8087ZM593.882 60.0589C594.698 58.7116 595.407 57.3041 596.009 55.8367L595.084 55.4572C594.501 56.8771 593.815 58.2383 593.027 59.5411L593.882 60.0589ZM598.298 46.7018C598.469 45.1814 598.555 43.614 598.555 42H597.555C597.555 43.5788 597.471 45.1087 597.304 46.5899L598.298 46.7018ZM598.555 42C598.555 40.4615 598.485 38.9656 598.346 37.5125L597.35 37.6079C597.487 39.0277 597.555 40.4916 597.555 42H598.555ZM596.472 28.7205C595.972 27.2814 595.381 25.8983 594.699 24.5716L593.81 25.0284C594.469 26.3128 595.042 27.6529 595.528 29.049L596.472 28.7205ZM594.704 24.5813C594.099 23.3366 593.43 22.1417 592.699 20.9966L591.856 21.535C592.566 22.647 593.216 23.8082 593.805 25.0187L594.704 24.5813ZM587.485 14.6622C586.504 13.7251 585.461 12.8382 584.357 12.0015L583.753 12.7985C584.828 13.6128 585.841 14.4751 586.794 15.3853L587.485 14.6622ZM584.364 12.0073C583.199 11.089 581.973 10.231 580.689 9.43336L580.161 10.2829C581.415 11.0613 582.61 11.8979 583.745 12.7927L584.364 12.0073ZM572.643 5.50963C571.274 4.99664 569.857 4.53308 568.391 4.11884L568.119 5.08115C569.559 5.48819 570.95 5.9432 572.292 6.44607L572.643 5.50963ZM568.391 4.11884C566.764 3.65903 565.095 3.25989 563.386 2.92131L563.192 3.90225C564.876 4.23582 566.518 4.62881 568.119 5.08115L568.391 4.11884ZM553.189 1.64644C551.511 1.54879 549.799 1.49999 548.055 1.49999V2.49999C549.781 2.49999 551.473 2.54826 553.131 2.64475L553.189 1.64644ZM548.055 1.49999H521.055V2.49999H548.055V1.49999ZM467.055 1.49999H413.055V2.49999H467.055V1.49999ZM359.055 1.49999H332.055V2.49999H359.055V1.49999ZM395.755 54V50H394.755V54H395.755ZM395.755 42V38H394.755V42H395.755ZM395.255 38.5H427.955V37.5H395.255V38.5ZM493.355 38.5H526.055V37.5H493.355V38.5ZM526.055 38.5C527.286 38.5 528.372 38.6207 529.316 38.8561L529.558 37.8859C528.519 37.6267 527.35 37.5 526.055 37.5V38.5ZM533.882 42.8039C534.194 43.7088 534.355 44.7715 534.355 46H535.355C535.355 44.6864 535.183 43.5099 534.828 42.4785L533.882 42.8039ZM534.355 46C534.355 47.2285 534.194 48.2912 533.882 49.1961L534.828 49.5215C535.183 48.4901 535.355 47.3136 535.355 46H534.355ZM529.316 53.1439C528.372 53.3793 527.286 53.5 526.055 53.5V54.5C527.35 54.5 528.519 54.3733 529.558 54.1141L529.316 53.1439ZM526.055 53.5H493.355V54.5H526.055V53.5ZM427.955 53.5H395.255V54.5H427.955V53.5ZM526.055 105.5H493.355V106.5H526.055V105.5ZM427.955 105.5H395.255V106.5H427.955V105.5ZM395.755 106V102H394.755V106H395.755ZM395.755 94V90H394.755V94H395.755ZM395.255 90.5H427.955V89.5H395.255V90.5ZM493.355 90.5H526.055V89.5H493.355V90.5ZM526.055 90.5C527.286 90.5 528.372 90.6207 529.316 90.8561L529.558 89.8859C528.519 89.6267 527.35 89.5 526.055 89.5V90.5ZM533.882 94.8039C534.194 95.7088 534.355 96.7715 534.355 98H535.355C535.355 96.6864 535.183 95.5099 534.828 94.4785L533.882 94.8039ZM534.355 98C534.355 99.2285 534.194 100.291 533.882 101.196L534.828 101.522C535.183 100.49 535.355 99.3136 535.355 98H534.355ZM529.316 105.144C528.372 105.379 527.286 105.5 526.055 105.5V106.5C527.35 106.5 528.519 106.373 529.558 106.114L529.316 105.144ZM332.055 1.99999V0.99999H331.055V1.99999H332.055ZM584.055 12.4L583.436 13.1855L583.443 13.1914L583.451 13.1971L584.055 12.4ZM594.255 24.8L593.355 25.2375L593.36 25.2472L593.365 25.2568L594.255 24.8ZM593.455 59.8L592.599 59.2822L592.594 59.2905L592.589 59.299L593.455 59.8ZM580.655 72L580.174 71.1229L578.573 72L580.174 72.8771L580.655 72ZM593.455 84.2L592.589 84.701L592.594 84.7095L592.599 84.7178L593.455 84.2ZM594.255 119.2L593.365 118.743L593.36 118.753L593.355 118.763L594.255 119.2ZM584.055 131.8L584.659 132.597L584.666 132.591L584.674 132.585L584.055 131.8ZM568.255 139.4L568.527 140.362L568.255 139.4ZM332.055 142H331.055V143H332.055V142ZM395.255 54H394.255V55H395.255V54ZM395.255 38V37H394.255V38H395.255ZM395.255 90V89H394.255V90H395.255ZM395.255 106H394.255V107H395.255V106ZM331.055 1.99999V37H333.055V1.99999H331.055ZM331.055 107V142H333.055V107H331.055ZM332.055 143H359.055V141H332.055V143ZM413.055 143H467.055V141H413.055V143ZM521.055 143H548.055V141H521.055V143ZM548.055 143C549.809 143 551.53 142.951 553.218 142.853L553.102 140.856C551.454 140.952 549.771 141 548.055 141V143ZM563.483 141.569C565.205 141.228 566.886 140.826 568.527 140.362L567.983 138.438C566.395 138.886 564.766 139.276 563.094 139.607L563.483 141.569ZM568.527 140.362C569.996 139.947 571.419 139.486 572.794 138.979L572.102 137.102C570.778 137.591 569.405 138.036 567.983 138.438L568.527 140.362ZM580.916 135.122C582.224 134.338 583.471 133.496 584.659 132.597L583.451 131.003C582.323 131.858 581.135 132.659 579.888 133.407L580.916 135.122ZM584.674 132.585C585.785 131.71 586.836 130.787 587.825 129.818L586.425 128.39C585.489 129.307 584.492 130.182 583.436 131.015L584.674 132.585ZM593.108 123.304C593.855 122.129 594.537 120.906 595.154 119.637L593.355 118.763C592.771 119.964 592.125 121.121 591.42 122.232L593.108 123.304ZM595.144 119.657C595.836 118.309 596.436 116.904 596.944 115.444L595.055 114.787C594.577 116.161 594.014 117.48 593.365 118.743L595.144 119.657ZM598.844 106.535C598.984 105.065 599.055 103.554 599.055 102H597.055C597.055 103.493 596.987 104.941 596.853 106.344L598.844 106.535ZM599.055 102C599.055 100.368 598.968 98.7822 598.795 97.2422L596.807 97.466C596.972 98.9277 597.055 100.439 597.055 102H599.055ZM596.471 87.9735C595.86 86.4824 595.139 85.0518 594.31 83.6822L592.599 84.7178C593.374 85.9983 594.048 87.3364 594.621 88.7326L596.471 87.9735ZM594.32 83.699C593.544 82.3588 592.678 81.0857 591.72 79.8803L590.154 81.1241C591.05 82.2526 591.862 83.4447 592.589 84.701L594.32 83.699ZM585.029 73.5611C583.807 72.688 582.509 71.8754 581.135 71.1229L580.174 72.8771C581.482 73.5931 582.712 74.3636 583.866 75.1883L585.029 73.5611ZM581.135 72.8771C582.509 72.1246 583.807 71.312 585.029 70.4389L583.866 68.8117C582.712 69.6364 581.482 70.4069 580.174 71.1229L581.135 72.8771ZM591.72 64.1197C592.678 62.9142 593.544 61.6412 594.32 60.301L592.589 59.299C591.862 60.5553 591.05 61.7474 590.154 62.8759L591.72 64.1197ZM594.31 60.3178C595.139 58.9482 595.86 57.5176 596.471 56.0265L594.621 55.2674C594.048 56.6636 593.374 58.0017 592.599 59.2822L594.31 60.3178ZM598.795 46.7578C598.968 45.2177 599.055 43.6317 599.055 42H597.055C597.055 43.5611 596.972 45.0723 596.807 46.534L598.795 46.7578ZM599.055 42C599.055 40.4465 598.984 38.9346 598.844 37.4648L596.853 37.6557C596.987 39.0587 597.055 40.5067 597.055 42H599.055ZM596.944 28.5563C596.436 27.0957 595.836 25.6911 595.144 24.3432L593.365 25.2568C594.014 26.52 594.577 27.8386 595.055 29.2132L596.944 28.5563ZM595.154 24.3625C594.54 23.1009 593.862 21.8891 593.12 20.7274L591.435 21.8042C592.135 22.8996 592.775 24.0439 593.355 25.2375L595.154 24.3625ZM587.83 14.3006C586.835 13.3501 585.778 12.4509 584.659 11.6029L583.451 13.1971C584.511 14.0001 585.51 14.8501 586.449 15.7469L587.83 14.3006ZM584.674 11.6145C583.493 10.6845 582.253 9.81585 580.953 9.00858L579.898 10.7077C581.136 11.4765 582.315 12.3024 583.436 13.1855L584.674 11.6145ZM572.819 5.04141C571.436 4.52337 570.005 4.05553 568.527 3.63768L567.983 5.5623C569.41 5.96574 570.788 6.41648 572.117 6.91429L572.819 5.04141ZM568.527 3.63768C566.886 3.17415 565.205 2.77192 563.483 2.43084L563.094 4.39273C564.766 4.72378 566.395 5.1137 567.983 5.5623L568.527 3.63768ZM553.218 1.14728C551.53 1.04905 549.809 0.99999 548.055 0.99999V2.99999C549.771 2.99999 551.454 3.048 553.102 3.1439L553.218 1.14728ZM548.055 0.99999H521.055V2.99999H548.055V0.99999ZM467.055 0.99999H413.055V2.99999H467.055V0.99999ZM359.055 0.99999H332.055V2.99999H359.055V0.99999ZM396.255 54V50H394.255V54H396.255ZM396.255 42V38H394.255V42H396.255ZM395.255 39H427.955V37H395.255V39ZM493.355 39H526.055V37H493.355V39ZM526.055 39C527.255 39 528.299 39.1177 529.195 39.3413L529.679 37.4007C528.592 37.1297 527.381 37 526.055 37V39ZM533.409 42.9666C533.699 43.8083 533.855 44.814 533.855 46H535.855C535.855 44.6438 535.677 43.4104 535.3 42.3157L533.409 42.9666ZM533.855 46C533.855 47.186 533.699 48.1917 533.409 49.0334L535.3 49.6843C535.677 48.5896 535.855 47.3561 535.855 46H533.855ZM529.195 52.6587C528.299 52.8823 527.255 53 526.055 53V55C527.381 55 528.592 54.8703 529.679 54.5992L529.195 52.6587ZM526.055 53H493.355V55H526.055V53ZM427.955 53H395.255V55H427.955V53ZM526.055 105H493.355V107H526.055V105ZM427.955 105H395.255V107H427.955V105ZM396.255 106V102H394.255V106H396.255ZM396.255 94V90H394.255V94H396.255ZM395.255 91H427.955V89H395.255V91ZM493.355 91H526.055V89H493.355V91ZM526.055 91C527.255 91 528.299 91.1177 529.195 91.3413L529.679 89.4007C528.592 89.1297 527.381 89 526.055 89V91ZM533.409 94.9666C533.699 95.8083 533.855 96.814 533.855 98H535.855C535.855 96.6438 535.677 95.4104 535.3 94.3157L533.409 94.9666ZM533.855 98C533.855 99.186 533.699 100.192 533.409 101.033L535.3 101.684C535.677 100.59 535.855 99.3561 535.855 98H533.855ZM529.195 104.659C528.299 104.882 527.255 105 526.055 105V107C527.381 107 528.592 106.87 529.679 106.599L529.195 104.659ZM875.278 5.79999L875.484 5.34456V5.34456L875.278 5.79999ZM897.478 21.6L897.114 21.9425L897.121 21.9499L897.478 21.6ZM912.478 44.6L912.015 44.7893L912.019 44.7978L912.478 44.6ZM912.478 99.6L912.018 99.4047L912.016 99.4082L912.478 99.6ZM897.478 122.6L897.117 122.254L897.117 122.254L897.478 122.6ZM875.278 138.2L875.072 137.745L875.278 138.2ZM674.878 138.2L674.672 138.655L674.878 138.2ZM652.478 122.6L652.114 122.943L652.121 122.95L652.478 122.6ZM637.478 99.6L637.015 99.7893L637.019 99.7978L637.478 99.6ZM637.478 44.6L637.018 44.4047L637.016 44.4082L637.478 44.6ZM652.478 21.6L652.117 21.2537L652.117 21.2539L652.478 21.6ZM674.878 5.79999L674.672 5.34456V5.34456L674.878 5.79999ZM700.878 57.8L700.525 57.4464V57.4464L700.878 57.8ZM700.878 86.2L700.525 86.5536L700.878 86.2ZM849.278 57.8L849.632 57.4464L849.278 57.8ZM848.078 -0.500008H811.578V0.499992H848.078V-0.500008ZM738.578 -0.500008H702.078V0.499992H738.578V-0.500008ZM702.078 -0.500008C699.698 -0.500008 697.349 -0.381956 695.033 -0.145739L695.134 0.849102C697.416 0.6164 699.731 0.499992 702.078 0.499992V-0.500008ZM681.246 2.77958C679.021 3.51201 676.829 4.36704 674.672 5.34456L675.084 6.25542C677.21 5.29252 679.368 4.45056 681.559 3.72946L681.246 2.77958ZM674.672 5.34456C672.545 6.30804 670.485 7.35804 668.489 8.49462L668.984 9.36354C670.952 8.24246 672.986 7.2064 675.084 6.25542L674.672 5.34456ZM657.155 16.4806C655.409 17.9836 653.729 19.5746 652.117 21.2537L652.839 21.9463C654.429 20.2898 656.085 18.7206 657.808 17.2386L657.155 16.4806ZM652.117 21.2539C650.513 22.9262 648.992 24.6723 647.552 26.4921L648.337 27.1124C649.756 25.3175 651.257 23.5954 652.839 21.9461L652.117 21.2539ZM639.993 38.1311C638.925 40.1549 637.934 42.2462 637.018 44.4047L637.938 44.7953C638.843 42.6619 639.823 40.5961 640.878 38.5977L639.993 38.1311ZM637.016 44.4082C636.107 46.5983 635.311 48.8182 634.629 51.068L635.586 51.3579C636.258 49.1402 637.043 46.9515 637.94 44.7918L637.016 44.4082ZM631.909 64.9353C631.688 67.2621 631.578 69.617 631.578 72H632.578C632.578 69.6479 632.687 67.3244 632.904 65.0296L631.909 64.9353ZM631.578 72C631.578 74.3952 631.689 76.7662 631.912 79.1127L632.908 79.0182C632.688 76.7036 632.578 74.3642 632.578 72H631.578ZM634.639 93.076C635.318 95.3392 636.11 97.577 637.015 99.7893L637.941 99.4107C637.048 97.2278 636.267 95.0205 635.597 92.7886L634.639 93.076ZM637.019 99.7978C637.943 101.943 638.945 104.029 640.024 106.053L640.906 105.583C639.841 103.583 638.851 101.523 637.937 99.4022L637.019 99.7978ZM647.588 117.678C649.016 119.497 650.524 121.252 652.114 122.942L652.842 122.258C651.273 120.588 649.784 118.856 648.375 117.061L647.588 117.678ZM652.121 122.95C653.74 124.602 655.426 126.17 657.181 127.653L657.826 126.89C656.096 125.427 654.432 123.88 652.835 122.25L652.121 122.95ZM668.513 135.531C670.501 136.654 672.554 137.696 674.672 138.655L675.084 137.745C672.993 136.797 670.967 135.769 669.005 134.66L668.513 135.531ZM674.672 138.655C676.829 139.633 679.021 140.488 681.246 141.22L681.559 140.271C679.368 139.549 677.21 138.707 675.084 137.745L674.672 138.655ZM695.033 144.146C697.349 144.382 699.698 144.5 702.078 144.5V143.5C699.731 143.5 697.416 143.384 695.134 143.151L695.033 144.146ZM702.078 144.5H738.578V143.5H702.078V144.5ZM811.578 144.5H848.078V143.5H811.578V144.5ZM848.078 144.5C850.459 144.5 852.807 144.382 855.124 144.146L855.022 143.151C852.74 143.384 850.426 143.5 848.078 143.5V144.5ZM868.91 141.22C871.136 140.488 873.327 139.633 875.484 138.655L875.072 137.745C872.947 138.707 870.789 139.549 868.598 140.271L868.91 141.22ZM875.484 138.655C877.594 137.7 879.635 136.663 881.607 135.544L881.114 134.675C879.168 135.778 877.154 136.801 875.072 137.745L875.484 138.655ZM892.847 127.667C894.584 126.179 896.248 124.605 897.839 122.946L897.117 122.254C895.548 123.89 893.908 125.441 892.196 126.908L892.847 127.667ZM897.839 122.946C899.452 121.266 900.977 119.522 902.414 117.715L901.631 117.093C900.214 118.875 898.709 120.596 897.117 122.254L897.839 122.946ZM909.991 106.083C911.06 104.047 912.043 101.95 912.94 99.7918L912.016 99.4082C911.131 101.539 910.161 103.609 909.106 105.618L909.991 106.083ZM912.938 99.7953C913.875 97.5879 914.695 95.3552 915.398 93.0971L914.443 92.7997C913.75 95.0257 912.942 97.2274 912.018 99.4047L912.938 99.7953ZM918.23 79.1266C918.462 76.7755 918.578 74.4 918.578 72H917.578C917.578 74.3677 917.464 76.7105 917.235 79.0285L918.23 79.1266ZM918.578 72C918.578 69.6122 918.463 67.2526 918.234 64.9212L917.239 65.0192C917.465 67.3174 917.578 69.6443 917.578 72H918.578ZM915.408 51.0465C914.702 48.802 913.879 46.5872 912.937 44.4022L912.019 44.7978C912.947 46.952 913.759 49.1348 914.454 51.3465L915.408 51.0465ZM912.941 44.4107C912.053 42.2396 911.08 40.1366 910.022 38.1017L909.134 38.563C910.178 40.5703 911.138 42.6457 912.015 44.7893L912.941 44.4107ZM902.45 26.4544C901.001 24.6467 899.463 22.912 897.835 21.2501L897.121 21.9499C898.726 23.5881 900.242 25.298 901.669 27.0797L902.45 26.4544ZM897.842 21.2575C896.258 19.5719 894.601 17.9749 892.873 16.4667L892.215 17.2203C893.919 18.7066 895.552 20.2806 897.114 21.9424L897.842 21.2575ZM881.631 8.48116C879.651 7.34973 877.602 6.30421 875.484 5.34456L875.072 6.25542C877.162 7.20243 879.183 8.23377 881.135 9.3494L881.631 8.48116ZM875.484 5.34456C873.327 4.36704 871.136 3.51201 868.91 2.77958L868.598 3.72946C870.789 4.45056 872.947 5.29252 875.072 6.25542L875.484 5.34456ZM855.124 -0.145739C852.807 -0.381956 850.459 -0.500008 848.078 -0.500008V0.499992C850.426 0.499992 852.74 0.6164 855.022 0.849102L855.124 -0.145739ZM835.078 51.5H805.078V52.5H835.078V51.5ZM745.078 51.5H715.078V52.5H745.078V51.5ZM715.078 51.5C713.692 51.5 712.355 51.6161 711.067 51.8492L711.245 52.8332C712.47 52.6114 713.748 52.5 715.078 52.5V51.5ZM703.626 54.8718C702.536 55.6103 701.502 56.4689 700.525 57.4464L701.232 58.1535C702.167 57.2184 703.152 56.4008 704.187 55.6997L703.626 54.8718ZM700.525 57.4464C699.547 58.424 698.688 59.4577 697.95 60.5476L698.778 61.1085C699.479 60.0738 700.297 59.0887 701.232 58.1535L700.525 57.4464ZM694.927 67.9891C694.694 69.2766 694.578 70.6137 694.578 72H695.578C695.578 70.6697 695.69 69.3923 695.911 68.1672L694.927 67.9891ZM694.578 72C694.578 73.3862 694.694 74.7234 694.927 76.0109L695.911 75.8328C695.69 74.6077 695.578 73.3303 695.578 72H694.578ZM697.95 83.4524C698.688 84.5423 699.547 85.576 700.525 86.5536L701.232 85.8464C700.297 84.9113 699.479 83.9262 698.778 82.8914L697.95 83.4524ZM700.525 86.5536C701.502 87.5311 702.536 88.3897 703.626 89.1282L704.187 88.3003C703.152 87.5992 702.167 86.7816 701.232 85.8464L700.525 86.5536ZM711.067 92.1508C712.355 92.3839 713.692 92.5 715.078 92.5V91.5C713.748 91.5 712.47 91.3886 711.245 91.1668L711.067 92.1508ZM715.078 92.5H745.078V91.5H715.078V92.5ZM805.078 92.5H835.078V91.5H805.078V92.5ZM835.078 92.5C836.464 92.5 837.802 92.3839 839.089 92.1508L838.911 91.1668C837.686 91.3886 836.408 91.5 835.078 91.5V92.5ZM846.531 89.1282C847.62 88.3897 848.654 87.5311 849.632 86.5536L848.925 85.8464C847.989 86.7816 847.004 87.5992 845.97 88.3003L846.531 89.1282ZM849.632 86.5536C850.609 85.576 851.468 84.5423 852.206 83.4524L851.378 82.8914C850.677 83.9262 849.86 84.9113 848.925 85.8464L849.632 86.5536ZM855.229 76.0109C855.462 74.7234 855.578 73.3863 855.578 72H854.578C854.578 73.3303 854.467 74.6077 854.245 75.8328L855.229 76.0109ZM855.578 72C855.578 70.6137 855.462 69.2766 855.229 67.9891L854.245 68.1672C854.467 69.3923 854.578 70.6697 854.578 72H855.578ZM852.206 60.5476C851.468 59.4577 850.609 58.424 849.632 57.4464L848.925 58.1535C849.86 59.0887 850.677 60.0738 851.378 61.1085L852.206 60.5476ZM849.632 57.4464C848.654 56.4689 847.62 55.6103 846.531 54.8718L845.97 55.6997C847.004 56.4008 847.989 57.2184 848.925 58.1535L849.632 57.4464ZM839.089 51.8492C837.802 51.6161 836.464 51.5 835.078 51.5V52.5C836.408 52.5 837.686 52.6114 838.911 52.8332L839.089 51.8492ZM875.278 5.79999L875.691 4.88914V4.88914L875.278 5.79999ZM897.478 21.6L896.75 22.2849L896.757 22.2924L896.764 22.2998L897.478 21.6ZM912.478 44.6L911.553 44.9786L911.556 44.9872L911.56 44.9956L912.478 44.6ZM912.478 99.6L911.557 99.2094L911.555 99.2164L912.478 99.6ZM897.478 122.6L896.757 121.907L896.756 121.908L897.478 122.6ZM875.278 138.2L874.865 137.289L875.278 138.2ZM674.878 138.2L674.465 139.111L674.878 138.2ZM652.478 122.6L651.75 123.285L651.757 123.292L651.764 123.3L652.478 122.6ZM637.478 99.6L636.553 99.9786L636.556 99.9872L636.56 99.9956L637.478 99.6ZM637.478 44.6L636.557 44.2094L636.555 44.2164L637.478 44.6ZM652.478 21.6L651.757 20.9075L651.756 20.9078L652.478 21.6ZM674.878 5.79999L674.465 4.88914V4.88914L674.878 5.79999ZM700.878 57.8L700.171 57.0929L700.878 57.8ZM700.878 86.2L700.171 86.9071L700.878 86.2ZM849.278 57.8L849.985 57.0929V57.0929L849.278 57.8ZM848.078 -1.00001H811.578V0.999992H848.078V-1.00001ZM738.578 -1.00001H702.078V0.999992H738.578V-1.00001ZM702.078 -1.00001C699.681 -1.00001 697.316 -0.881134 694.982 -0.64316L695.185 1.34652C697.45 1.11558 699.747 0.999992 702.078 0.999992V-1.00001ZM681.09 2.30464C678.847 3.04274 676.639 3.9043 674.465 4.88914L675.291 6.71084C677.4 5.75526 679.541 4.91984 681.715 4.2044L681.09 2.30464ZM674.465 4.88914C672.325 5.85886 670.251 6.91584 668.242 8.06016L669.232 9.798C671.186 8.68466 673.206 7.65558 675.291 6.71084L674.465 4.88914ZM656.829 16.1016C655.07 17.615 653.38 19.217 651.757 20.9075L653.2 22.2925C654.779 20.6474 656.424 19.0892 658.134 17.6176L656.829 16.1016ZM651.756 20.9078C650.141 22.5916 648.609 24.3497 647.16 26.1819L648.729 27.4225C650.139 25.6401 651.629 23.9301 653.2 22.2922L651.756 20.9078ZM639.551 37.8978C638.476 39.9343 637.479 42.0383 636.558 44.2094L638.399 44.9905C639.298 42.8698 640.272 40.8167 641.32 38.831L639.551 37.8978ZM636.555 44.2164C635.639 46.4217 634.837 48.6572 634.151 50.923L636.065 51.5029C636.732 49.3012 637.511 47.1282 638.402 44.9836L636.555 44.2164ZM631.411 64.8881C631.189 67.2309 631.078 69.6016 631.078 72H633.078C633.078 69.6633 633.186 67.3556 633.402 65.0768L631.411 64.8881ZM631.078 72C631.078 74.4108 631.19 76.7975 631.414 79.16L633.405 78.971C633.187 76.6723 633.078 74.3487 633.078 72H631.078ZM634.16 93.2198C634.844 95.4985 635.641 97.7515 636.553 99.9786L638.404 99.2214C637.517 97.0533 636.741 94.8611 636.076 92.6449L634.16 93.2198ZM636.56 99.9956C637.489 102.154 638.497 104.251 639.583 106.288L641.348 105.347C640.288 103.36 639.305 101.313 638.397 99.2044L636.56 99.9956ZM647.195 117.987C648.632 119.817 650.15 121.583 651.75 123.285L653.207 121.915C651.648 120.257 650.168 118.536 648.768 116.752L647.195 117.987ZM651.764 123.3C653.393 124.963 655.091 126.542 656.858 128.035L658.149 126.508C656.431 125.055 654.779 123.519 653.193 121.9L651.764 123.3ZM668.267 135.966C670.268 137.097 672.334 138.145 674.465 139.111L675.291 137.289C673.213 136.347 671.199 135.326 669.251 134.225L668.267 135.966ZM674.465 139.111C676.639 140.096 678.847 140.957 681.09 141.695L681.715 139.796C679.541 139.08 677.4 138.245 675.291 137.289L674.465 139.111ZM694.982 144.643C697.316 144.881 699.681 145 702.078 145V143C699.747 143 697.45 142.884 695.185 142.653L694.982 144.643ZM702.078 145H738.578V143H702.078V145ZM811.578 145H848.078V143H811.578V145ZM848.078 145C850.475 145 852.841 144.881 855.174 144.643L854.971 142.653C852.707 142.884 850.409 143 848.078 143V145ZM869.067 141.695C871.309 140.957 873.517 140.096 875.691 139.111L874.865 137.289C872.757 138.245 870.615 139.08 868.441 139.796L869.067 141.695ZM875.691 139.111C877.814 138.149 879.868 137.105 881.854 135.979L880.868 134.24C878.935 135.335 876.935 136.352 874.865 137.289L875.691 139.111ZM893.172 128.047C894.921 126.548 896.597 124.963 898.2 123.292L896.756 121.908C895.199 123.532 893.57 125.072 891.871 126.529L893.172 128.047ZM898.2 123.293C899.823 121.601 901.358 119.846 902.805 118.027L901.239 116.782C899.832 118.552 898.338 120.26 896.757 121.907L898.2 123.293ZM910.434 106.315C911.51 104.266 912.5 102.155 913.402 99.9836L911.555 99.2164C910.675 101.334 909.711 103.39 908.663 105.385L910.434 106.315ZM913.399 99.9905C914.342 97.7681 915.167 95.5199 915.876 93.2458L913.966 92.651C913.278 94.861 912.475 97.0471 911.558 99.2094L913.399 99.9905ZM918.728 79.1757C918.961 76.808 919.078 74.4161 919.078 72H917.078C917.078 74.3516 916.965 76.678 916.738 78.9794L918.728 79.1757ZM919.078 72C919.078 69.5962 918.963 67.2202 918.732 64.8722L916.741 65.0682C916.966 67.3498 917.078 69.6603 917.078 72H919.078ZM915.885 50.8965C915.174 48.6356 914.344 46.4049 913.397 44.2044L911.56 44.9956C912.481 47.1343 913.287 49.3012 913.977 51.4965L915.885 50.8965ZM913.404 44.2214C912.51 42.0365 911.53 39.9197 910.465 37.871L908.691 38.7936C909.727 40.7871 910.681 42.8488 911.553 44.9786L913.404 44.2214ZM902.84 26.1418C901.381 24.3211 899.832 22.5739 898.193 20.9002L896.764 22.2998C898.357 23.9262 899.862 25.6237 901.279 27.3923L902.84 26.1418ZM898.207 20.9151C896.611 19.2175 894.943 17.6091 893.201 16.09L891.886 17.597C893.578 19.0724 895.199 20.635 896.75 22.2849L898.207 20.9151ZM881.879 8.04705C879.885 6.90771 877.823 5.8551 875.691 4.88914L874.865 6.71084C876.941 7.65153 878.949 8.67579 880.887 9.78352L881.879 8.04705ZM875.691 4.88914C873.517 3.9043 871.309 3.04274 869.067 2.30464L868.441 4.2044C870.615 4.91984 872.757 5.75526 874.865 6.71084L875.691 4.88914ZM855.174 -0.64316C852.841 -0.881134 850.475 -1.00001 848.078 -1.00001V0.999992C850.409 0.999992 852.707 1.11558 854.971 1.34652L855.174 -0.64316ZM835.078 51H805.078V53H835.078V51ZM745.078 51H715.078V53H745.078V51ZM715.078 51C713.664 51 712.297 51.1184 710.978 51.3572L711.334 53.3252C712.528 53.109 713.776 53 715.078 53V51ZM703.345 54.4579C702.228 55.2151 701.17 56.0941 700.171 57.0929L701.585 58.5071C702.499 57.5931 703.46 56.7961 704.467 56.1136L703.345 54.4579ZM700.171 57.0929C699.172 58.0916 698.293 59.1496 697.536 60.2672L699.192 61.389C699.874 60.3818 700.671 59.4211 701.585 58.5071L700.171 57.0929ZM694.435 67.9C694.197 69.2187 694.078 70.5858 694.078 72H696.078C696.078 70.6977 696.187 69.4502 696.403 68.2563L694.435 67.9ZM694.078 72C694.078 73.4142 694.197 74.7813 694.435 76.1L696.403 75.7437C696.187 74.5498 696.078 73.3023 696.078 72H694.078ZM697.536 83.7328C698.293 84.8504 699.172 85.9084 700.171 86.9071L701.585 85.4929C700.671 84.5789 699.874 83.6182 699.192 82.611L697.536 83.7328ZM700.171 86.9071C701.17 87.9058 702.228 88.7849 703.345 89.5421L704.467 87.8864C703.46 87.2039 702.499 86.4068 701.585 85.4929L700.171 86.9071ZM710.978 92.6428C712.297 92.8816 713.664 93 715.078 93V91C713.776 91 712.528 90.891 711.334 90.6748L710.978 92.6428ZM715.078 93H745.078V91H715.078V93ZM805.078 93H835.078V91H805.078V93ZM835.078 93C836.492 93 837.859 92.8816 839.178 92.6428L838.822 90.6748C837.628 90.891 836.38 91 835.078 91V93ZM846.811 89.5421C847.929 88.7849 848.987 87.9058 849.985 86.9071L848.571 85.4929C847.657 86.4068 846.696 87.2039 845.689 87.8864L846.811 89.5421ZM849.985 86.9071C850.984 85.9084 851.863 84.8504 852.62 83.7328L850.964 82.611C850.282 83.6182 849.485 84.5789 848.571 85.4929L849.985 86.9071ZM855.721 76.1C855.96 74.7813 856.078 73.4142 856.078 72H854.078C854.078 73.3023 853.969 74.5498 853.753 75.7437L855.721 76.1ZM856.078 72C856.078 70.5858 855.96 69.2187 855.721 67.9L853.753 68.2563C853.969 69.4502 854.078 70.6977 854.078 72H856.078ZM852.62 60.2672C851.863 59.1496 850.984 58.0916 849.985 57.0929L848.571 58.5071C849.485 59.4211 850.282 60.3818 850.964 61.389L852.62 60.2672ZM849.985 57.0929C848.987 56.0941 847.929 55.2151 846.811 54.4579L845.689 56.1136C846.696 56.7961 847.657 57.5932 848.571 58.5071L849.985 57.0929ZM839.178 51.3572C837.859 51.1184 836.492 51 835.078 51V53C836.38 53 837.628 53.109 838.822 53.3252L839.178 51.3572ZM1216.53 99.6L1216.06 99.4047L1216.06 99.4082L1216.53 99.6ZM1201.53 122.6L1201.16 122.254L1201.16 122.254L1201.53 122.6ZM1179.32 138.2L1179.12 137.745L1179.32 138.2ZM998.925 138.2L998.719 138.655L998.925 138.2ZM976.525 122.6L976.161 122.943L976.168 122.95L976.525 122.6ZM961.525 99.6L961.062 99.7893L961.066 99.7978L961.525 99.6ZM956.125 1.99999V1.49999H955.625V1.99999H956.125ZM1019.32 1.99999H1019.82V1.49999H1019.32V1.99999ZM1025.12 86.2L1025.48 85.8464L1025.12 86.2ZM1153.12 86.2L1153.48 86.5536L1153.12 86.2ZM1158.93 1.99999V1.49999H1158.43V1.99999H1158.93ZM1222.12 1.99999H1222.62V1.49999H1222.12V1.99999ZM1221.62 72C1221.62 74.3677 1221.51 76.7105 1221.28 79.0285L1222.28 79.1266C1222.51 76.7755 1222.62 74.4 1222.62 72H1221.62ZM1218.49 92.7997C1217.8 95.0257 1216.99 97.2274 1216.06 99.4047L1216.99 99.7953C1217.92 97.5879 1218.74 95.3552 1219.45 93.0971L1218.49 92.7997ZM1216.06 99.4082C1215.18 101.539 1214.21 103.609 1213.15 105.618L1214.04 106.083C1215.11 104.047 1216.09 101.95 1216.99 99.7918L1216.06 99.4082ZM1205.68 117.093C1204.26 118.875 1202.76 120.596 1201.16 122.254L1201.89 122.946C1203.5 121.266 1205.02 119.522 1206.46 117.715L1205.68 117.093ZM1201.16 122.254C1199.6 123.89 1197.95 125.441 1196.24 126.908L1196.89 127.667C1198.63 126.179 1200.29 124.605 1201.89 122.946L1201.16 122.254ZM1185.16 134.675C1183.22 135.778 1181.2 136.801 1179.12 137.745L1179.53 138.655C1181.64 137.7 1183.68 136.663 1185.65 135.544L1185.16 134.675ZM1179.12 137.745C1176.99 138.707 1174.84 139.549 1172.64 140.271L1172.96 141.22C1175.18 140.488 1177.37 139.633 1179.53 138.655L1179.12 137.745ZM1159.07 143.151C1156.79 143.384 1154.47 143.5 1152.12 143.5V144.5C1154.51 144.5 1156.85 144.382 1159.17 144.146L1159.07 143.151ZM1152.12 143.5H1120.62V144.5H1152.12V143.5ZM1057.62 143.5H1026.12V144.5H1057.62V143.5ZM1026.12 143.5C1023.78 143.5 1021.46 143.384 1019.18 143.151L1019.08 144.146C1021.4 144.382 1023.74 144.5 1026.12 144.5V143.5ZM1005.61 140.271C1003.41 139.549 1001.26 138.707 999.131 137.745L998.719 138.655C1000.88 139.633 1003.07 140.488 1005.29 141.22L1005.61 140.271ZM999.131 137.745C997.04 136.797 995.013 135.769 993.052 134.66L992.56 135.531C994.548 136.654 996.601 137.696 998.719 138.655L999.131 137.745ZM981.873 126.89C980.143 125.427 978.479 123.88 976.882 122.25L976.168 122.95C977.787 124.602 979.473 126.17 981.228 127.653L981.873 126.89ZM976.889 122.258C975.32 120.588 973.831 118.856 972.422 117.061L971.635 117.678C973.063 119.497 974.571 121.252 976.161 122.942L976.889 122.258ZM964.953 105.583C963.887 103.583 962.898 101.523 961.984 99.4022L961.066 99.7978C961.99 101.943 962.992 104.029 964.071 106.053L964.953 105.583ZM961.988 99.4107C961.095 97.2278 960.313 95.0205 959.644 92.7886L958.686 93.076C959.365 95.3392 960.157 97.577 961.062 99.7893L961.988 99.4107ZM956.955 79.0182C956.735 76.7036 956.625 74.3642 956.625 72H955.625C955.625 74.3952 955.736 76.7662 955.959 79.1127L956.955 79.0182ZM956.625 72V54.5H955.625V72H956.625ZM956.625 19.5V1.99999H955.625V19.5H956.625ZM956.125 2.49999H971.925V1.49999H956.125V2.49999ZM1003.53 2.49999H1019.32V1.49999H1003.53V2.49999ZM1018.82 1.99999V19.5H1019.82V1.99999H1018.82ZM1018.82 54.5V72H1019.82V54.5H1018.82ZM1018.82 72C1018.82 73.3863 1018.94 74.7234 1019.17 76.0109L1020.16 75.8328C1019.94 74.6077 1019.82 73.3303 1019.82 72H1018.82ZM1022.2 83.4524C1022.94 84.5423 1023.79 85.576 1024.77 86.5536L1025.48 85.8464C1024.54 84.9113 1023.73 83.9262 1023.02 82.8914L1022.2 83.4524ZM1024.77 86.5536C1025.75 87.5311 1026.78 88.3897 1027.87 89.1282L1028.43 88.3003C1027.4 87.5992 1026.41 86.7816 1025.48 85.8464L1024.77 86.5536ZM1035.31 92.1508C1036.6 92.3839 1037.94 92.5 1039.32 92.5V91.5C1037.99 91.5 1036.72 91.3886 1035.49 91.1668L1035.31 92.1508ZM1039.32 92.5H1064.22V91.5H1039.32V92.5ZM1114.03 92.5H1138.93V91.5H1114.03V92.5ZM1138.93 92.5C1140.31 92.5 1141.65 92.3839 1142.94 92.1508L1142.76 91.1668C1141.53 91.3886 1140.26 91.5 1138.93 91.5V92.5ZM1150.38 89.1282C1151.47 88.3897 1152.5 87.5311 1153.48 86.5536L1152.77 85.8464C1151.84 86.7816 1150.85 87.5992 1149.82 88.3003L1150.38 89.1282ZM1153.48 86.5536C1154.46 85.576 1155.31 84.5423 1156.05 83.4524L1155.23 82.8914C1154.52 83.9262 1153.71 84.9113 1152.77 85.8464L1153.48 86.5536ZM1159.08 76.0109C1159.31 74.7234 1159.43 73.3862 1159.43 72H1158.43C1158.43 73.3303 1158.31 74.6077 1158.09 75.8328L1159.08 76.0109ZM1159.43 72V54.5H1158.43V72H1159.43ZM1159.43 19.5V1.99999H1158.43V19.5H1159.43ZM1158.93 2.49999H1174.72V1.49999H1158.93V2.49999ZM1206.33 2.49999H1222.12V1.49999H1206.33V2.49999ZM1221.62 1.99999V19.5H1222.62V1.99999H1221.62ZM1221.62 54.5V72H1222.62V54.5H1221.62ZM1216.53 99.6L1215.6 99.2094L1215.6 99.2164L1216.53 99.6ZM1201.53 122.6L1200.8 121.907L1200.8 121.908L1201.53 122.6ZM1179.32 138.2L1178.91 137.289L1179.32 138.2ZM998.925 138.2L998.512 139.111L998.925 138.2ZM976.525 122.6L975.796 123.285L975.803 123.292L975.811 123.3L976.525 122.6ZM961.525 99.6L960.599 99.9786L960.603 99.9872L960.607 99.9956L961.525 99.6ZM956.125 1.99999V0.99999H955.125V1.99999H956.125ZM1019.32 1.99999H1020.32V0.99999H1019.32V1.99999ZM1025.12 86.2L1025.83 85.4929L1025.12 86.2ZM1153.12 86.2L1153.83 86.9071L1153.12 86.2ZM1158.93 1.99999V0.99999H1157.93V1.99999H1158.93ZM1222.12 1.99999H1223.12V0.99999H1222.12V1.99999ZM1221.12 72C1221.12 74.3516 1221.01 76.678 1220.78 78.9794L1222.77 79.1757C1223.01 76.808 1223.12 74.4161 1223.12 72H1221.12ZM1218.01 92.651C1217.32 94.861 1216.52 97.0471 1215.6 99.2094L1217.45 99.9905C1218.39 97.7682 1219.21 95.5199 1219.92 93.2458L1218.01 92.651ZM1215.6 99.2164C1214.72 101.334 1213.76 103.39 1212.71 105.385L1214.48 106.315C1215.56 104.266 1216.55 102.155 1217.45 99.9836L1215.6 99.2164ZM1205.29 116.782C1203.88 118.552 1202.38 120.26 1200.8 121.907L1202.25 123.293C1203.87 121.601 1205.41 119.846 1206.85 118.027L1205.29 116.782ZM1200.8 121.908C1199.25 123.532 1197.62 125.072 1195.92 126.529L1197.22 128.047C1198.97 126.548 1200.64 124.963 1202.25 123.292L1200.8 121.908ZM1184.91 134.24C1182.98 135.335 1180.98 136.352 1178.91 137.289L1179.74 139.111C1181.86 138.149 1183.91 137.105 1185.9 135.979L1184.91 134.24ZM1178.91 137.289C1176.8 138.245 1174.66 139.08 1172.49 139.796L1173.11 141.695C1175.36 140.957 1177.56 140.096 1179.74 139.111L1178.91 137.289ZM1159.02 142.653C1156.75 142.884 1154.46 143 1152.12 143V145C1154.52 145 1156.89 144.881 1159.22 144.643L1159.02 142.653ZM1152.12 143H1120.62V145H1152.12V143ZM1057.62 143H1026.12V145H1057.62V143ZM1026.12 143C1023.79 143 1021.5 142.884 1019.23 142.653L1019.03 144.643C1021.36 144.881 1023.73 145 1026.12 145V143ZM1005.76 139.796C1003.59 139.08 1001.45 138.245 999.338 137.289L998.512 139.111C1000.69 140.096 1002.89 140.957 1005.14 141.695L1005.76 139.796ZM999.338 137.289C997.26 136.347 995.246 135.326 993.298 134.225L992.314 135.966C994.315 137.097 996.381 138.145 998.512 139.111L999.338 137.289ZM982.196 126.508C980.478 125.055 978.825 123.519 977.239 121.9L975.811 123.3C977.44 124.963 979.138 126.542 980.905 128.035L982.196 126.508ZM977.254 121.915C975.695 120.257 974.215 118.536 972.815 116.752L971.242 117.987C972.679 119.817 974.197 121.583 975.796 123.285L977.254 121.915ZM965.394 105.347C964.335 103.36 963.352 101.313 962.443 99.2044L960.607 99.9956C961.536 102.154 962.544 104.251 963.629 106.288L965.394 105.347ZM962.451 99.2214C961.564 97.0533 960.788 94.8611 960.122 92.6449L958.207 93.2198C958.891 95.4985 959.688 97.7515 960.599 99.9786L962.451 99.2214ZM957.452 78.971C957.234 76.6723 957.125 74.3487 957.125 72H955.125C955.125 74.4108 955.237 76.7975 955.461 79.16L957.452 78.971ZM957.125 72V54.5H955.125V72H957.125ZM957.125 19.5V1.99999H955.125V19.5H957.125ZM956.125 2.99999H971.925V0.99999H956.125V2.99999ZM1003.53 2.99999H1019.32V0.99999H1003.53V2.99999ZM1018.32 1.99999V19.5H1020.32V1.99999H1018.32ZM1018.32 54.5V72H1020.32V54.5H1018.32ZM1018.32 72C1018.32 73.4142 1018.44 74.7813 1018.68 76.1L1020.65 75.7437C1020.43 74.5498 1020.32 73.3023 1020.32 72H1018.32ZM1021.78 83.7328C1022.54 84.8504 1023.42 85.9084 1024.42 86.9071L1025.83 85.4929C1024.92 84.5789 1024.12 83.6182 1023.44 82.611L1021.78 83.7328ZM1024.42 86.9071C1025.42 87.9058 1026.47 88.7849 1027.59 89.5421L1028.71 87.8864C1027.71 87.2039 1026.75 86.4068 1025.83 85.4929L1024.42 86.9071ZM1035.22 92.6428C1036.54 92.8816 1037.91 93 1039.32 93V91C1038.02 91 1036.78 90.891 1035.58 90.6748L1035.22 92.6428ZM1039.32 93H1064.22V91H1039.32V93ZM1114.03 93H1138.93V91H1114.03V93ZM1138.93 93C1140.34 93 1141.71 92.8816 1143.03 92.6428L1142.67 90.6748C1141.47 90.891 1140.23 91 1138.93 91V93ZM1150.66 89.5421C1151.78 88.7849 1152.83 87.9058 1153.83 86.9071L1152.42 85.4929C1151.5 86.4068 1150.54 87.2039 1149.54 87.8864L1150.66 89.5421ZM1153.83 86.9071C1154.83 85.9084 1155.71 84.8504 1156.47 83.7328L1154.81 82.611C1154.13 83.6182 1153.33 84.5789 1152.42 85.4929L1153.83 86.9071ZM1159.57 76.1C1159.81 74.7813 1159.93 73.4142 1159.93 72H1157.93C1157.93 73.3023 1157.82 74.5498 1157.6 75.7437L1159.57 76.1ZM1159.93 72V54.5H1157.93V72H1159.93ZM1159.93 19.5V1.99999H1157.93V19.5H1159.93ZM1158.93 2.99999H1174.72V0.99999H1158.93V2.99999ZM1206.33 2.99999H1222.12V0.99999H1206.33V2.99999ZM1221.12 1.99999V19.5H1223.12V1.99999H1221.12ZM1221.12 54.5V72H1223.12V54.5H1221.12ZM1365.36 50H1365.86V49.5H1365.36V50ZM1264.16 50H1263.66V50.5H1264.16V50ZM1264.16 1.99999V1.49999H1263.66V1.99999H1264.16ZM1530.16 1.99999H1530.66V1.49999H1530.16V1.99999ZM1530.16 50V50.5H1530.66V50H1530.16ZM1428.56 50V49.5H1428.06V50H1428.56ZM1428.56 142V142.5H1429.06V142H1428.56ZM1365.36 142H1364.86V142.5H1365.36V142ZM1365.36 49.5H1340.06V50.5H1365.36V49.5ZM1289.46 49.5H1264.16V50.5H1289.46V49.5ZM1264.66 50V38H1263.66V50H1264.66ZM1264.66 14V1.99999H1263.66V14H1264.66ZM1264.16 2.49999H1286.32V1.49999H1264.16V2.49999ZM1330.66 2.49999H1374.99V1.49999H1330.66V2.49999ZM1419.32 2.49999H1463.66V1.49999H1419.32V2.49999ZM1507.99 2.49999H1530.16V1.49999H1507.99V2.49999ZM1529.66 1.99999V14H1530.66V1.99999H1529.66ZM1529.66 38V50H1530.66V38H1529.66ZM1530.16 49.5H1504.76V50.5H1530.16V49.5ZM1453.96 49.5H1428.56V50.5H1453.96V49.5ZM1428.06 50V73H1429.06V50H1428.06ZM1428.06 119V142H1429.06V119H1428.06ZM1428.56 141.5H1412.76V142.5H1428.56V141.5ZM1381.16 141.5H1365.36V142.5H1381.16V141.5ZM1365.86 142V119H1364.86V142H1365.86ZM1365.86 73V50H1364.86V73H1365.86ZM1365.36 50H1366.36V49H1365.36V50ZM1264.16 50H1263.16V51H1264.16V50ZM1264.16 1.99999V0.99999H1263.16V1.99999H1264.16ZM1530.16 1.99999H1531.16V0.99999H1530.16V1.99999ZM1530.16 50V51H1531.16V50H1530.16ZM1428.56 50V49H1427.56V50H1428.56ZM1428.56 142V143H1429.56V142H1428.56ZM1365.36 142H1364.36V143H1365.36V142ZM1365.36 49H1340.06V51H1365.36V49ZM1289.46 49H1264.16V51H1289.46V49ZM1265.16 50V38H1263.16V50H1265.16ZM1265.16 14V1.99999H1263.16V14H1265.16ZM1264.16 2.99999H1286.32V0.99999H1264.16V2.99999ZM1330.66 2.99999H1374.99V0.99999H1330.66V2.99999ZM1419.32 2.99999H1463.66V0.99999H1419.32V2.99999ZM1507.99 2.99999H1530.16V0.99999H1507.99V2.99999ZM1529.16 1.99999V14H1531.16V1.99999H1529.16ZM1529.16 38V50H1531.16V38H1529.16ZM1530.16 49H1504.76V51H1530.16V49ZM1453.96 49H1428.56V51H1453.96V49ZM1427.56 50V73H1429.56V50H1427.56ZM1427.56 119V142H1429.56V119H1427.56ZM1428.56 141H1412.76V143H1428.56V141ZM1381.16 141H1365.36V143H1381.16V141ZM1366.36 142V119H1364.36V142H1366.36ZM1366.36 73V50H1364.36V73H1366.36ZM9.53674e-07 166V165.5H-0.5V166H9.53674e-07ZM84.4 166L84.7885 165.685L84.6384 165.5H84.4V166ZM162.2 262L161.812 262.315L162.2 262.794L162.588 262.315L162.2 262ZM240 166V165.5H239.762L239.612 165.685L240 166ZM327.6 166H328.1V165.5H327.6V166ZM327.6 306V306.5H328.1V306H327.6ZM264.4 306H263.9V306.5H264.4V306ZM264.4 223.8H264.9V222.389L264.012 223.485L264.4 223.8ZM197.8 306V306.5H198.038L198.188 306.315L197.8 306ZM126.6 306L126.212 306.315L126.362 306.5H126.6V306ZM63.2 227.8L63.5884 227.485L62.7 226.389V227.8H63.2ZM63.2 306V306.5H63.7V306H63.2ZM9.53674e-07 306H-0.5V306.5H9.53674e-07V306ZM-0.5 166V201H0.500001V166H-0.5ZM-0.5 271V306H0.500001V271H-0.5ZM9.53674e-07 306.5H15.8V305.5H9.53674e-07V306.5ZM47.4 306.5H63.2V305.5H47.4V306.5ZM63.7 306V286.45H62.7V306H63.7ZM63.7 247.35V227.8H62.7V247.35H63.7ZM62.8116 228.115L78.6616 247.665L79.4384 247.035L63.5884 227.485L62.8116 228.115ZM110.362 286.765L126.212 306.315L126.988 305.685L111.138 286.135L110.362 286.765ZM126.6 306.5H144.4V305.5H126.6V306.5ZM180 306.5H197.8V305.5H180V306.5ZM198.188 306.315L214.839 285.765L214.062 285.135L197.412 305.685L198.188 306.315ZM248.139 244.665L264.789 224.115L264.012 223.485L247.362 244.035L248.139 244.665ZM263.9 223.8V244.35H264.9V223.8H263.9ZM263.9 285.45V306H264.9V285.45H263.9ZM264.4 306.5H280.2V305.5H264.4V306.5ZM311.8 306.5H327.6V305.5H311.8V306.5ZM328.1 306V271H327.1V306H328.1ZM328.1 201V166H327.1V201H328.1ZM327.6 165.5H305.7V166.5H327.6V165.5ZM261.9 165.5H240V166.5H261.9V165.5ZM239.612 165.685L220.162 189.685L220.938 190.315L240.388 166.315L239.612 165.685ZM181.262 237.685L161.812 261.685L162.588 262.315L182.038 238.315L181.262 237.685ZM162.588 261.685L143.138 237.685L142.362 238.315L161.812 262.315L162.588 261.685ZM104.238 189.685L84.7885 165.685L84.0116 166.315L103.462 190.315L104.238 189.685ZM84.4 165.5H63.3V166.5H84.4V165.5ZM21.1 165.5H9.53674e-07V166.5H21.1V165.5ZM9.53674e-07 166V165H-1V166H9.53674e-07ZM84.4 166L85.1769 165.37L84.8767 165H84.4V166ZM162.2 262L161.423 262.63L162.2 263.588L162.977 262.63L162.2 262ZM240 166V165H239.523L239.223 165.37L240 166ZM327.6 166H328.6V165H327.6V166ZM327.6 306V307H328.6V306H327.6ZM264.4 306H263.4V307H264.4V306ZM264.4 223.8H265.4V220.977L263.623 223.17L264.4 223.8ZM197.8 306V307H198.277L198.577 306.63L197.8 306ZM126.6 306L125.823 306.63L126.123 307H126.6V306ZM63.2 227.8L63.9768 227.17L62.2 224.979V227.8H63.2ZM63.2 306V307H64.2V306H63.2ZM9.53674e-07 306H-1V307H9.53674e-07V306ZM-1 166V201H1V166H-1ZM-1 271V306H1V271H-1ZM9.53674e-07 307H15.8V305H9.53674e-07V307ZM47.4 307H63.2V305H47.4V307ZM64.2 306V286.45H62.2V306H64.2ZM64.2 247.35V227.8H62.2V247.35H64.2ZM62.4232 228.43L78.2732 247.98L79.8268 246.72L63.9768 227.17L62.4232 228.43ZM109.973 287.08L125.823 306.63L127.377 305.37L111.527 285.82L109.973 287.08ZM126.6 307H144.4V305H126.6V307ZM180 307H197.8V305H180V307ZM198.577 306.63L215.227 286.08L213.673 284.82L197.023 305.37L198.577 306.63ZM248.527 244.98L265.177 224.43L263.623 223.17L246.973 243.72L248.527 244.98ZM263.4 223.8V244.35H265.4V223.8H263.4ZM263.4 285.45V306H265.4V285.45H263.4ZM264.4 307H280.2V305H264.4V307ZM311.8 307H327.6V305H311.8V307ZM328.6 306V271H326.6V306H328.6ZM328.6 201V166H326.6V201H328.6ZM327.6 165H305.7V167H327.6V165ZM261.9 165H240V167H261.9V165ZM239.223 165.37L219.773 189.37L221.327 190.63L240.777 166.63L239.223 165.37ZM180.873 237.37L161.423 261.37L162.977 262.63L182.427 238.63L180.873 237.37ZM162.977 261.37L143.527 237.37L141.973 238.63L161.423 262.63L162.977 261.37ZM104.627 189.37L85.1769 165.37L83.6231 166.63L103.073 190.63L104.627 189.37ZM84.4 165H63.3V167H84.4V165ZM21.1 165H9.53674e-07V167H21.1V165ZM369.555 166V165.5H369.055V166H369.555ZM629.555 166H630.055V165.5H629.555V166ZM629.555 202V202.5H630.055V202H629.555ZM432.755 202V201.5H432.255V202H432.755ZM432.755 218H432.255V218.5H432.755V218ZM629.555 218H630.055V217.5H629.555V218ZM629.555 254V254.5H630.055V254H629.555ZM432.755 254V253.5H432.255V254H432.755ZM432.755 270H432.255V270.5H432.755V270ZM629.555 270H630.055V269.5H629.555V270ZM629.555 306V306.5H630.055V306H629.555ZM369.555 306H369.055V306.5H369.555V306ZM369.055 166V201H370.055V166H369.055ZM369.055 271V306H370.055V271H369.055ZM369.555 306.5H391.221V305.5H369.555V306.5ZM434.555 306.5H477.888V305.5H434.555V306.5ZM521.221 306.5H564.555V305.5H521.221V306.5ZM607.888 306.5H629.555V305.5H607.888V306.5ZM630.055 306V297H629.055V306H630.055ZM630.055 279V270H629.055V279H630.055ZM629.555 269.5H604.955V270.5H629.555V269.5ZM555.755 269.5H506.555V270.5H555.755V269.5ZM457.355 269.5H432.755V270.5H457.355V269.5ZM433.255 270V266H432.255V270H433.255ZM433.255 258V254H432.255V258H433.255ZM432.755 254.5H457.355V253.5H432.755V254.5ZM506.555 254.5H555.755V253.5H506.555V254.5ZM604.955 254.5H629.555V253.5H604.955V254.5ZM630.055 254V245H629.055V254H630.055ZM630.055 227V218H629.055V227H630.055ZM629.555 217.5H604.955V218.5H629.555V217.5ZM555.755 217.5H506.555V218.5H555.755V217.5ZM457.355 217.5H432.755V218.5H457.355V217.5ZM433.255 218V214H432.255V218H433.255ZM433.255 206V202H432.255V206H433.255ZM432.755 202.5H457.355V201.5H432.755V202.5ZM506.555 202.5H555.755V201.5H506.555V202.5ZM604.955 202.5H629.555V201.5H604.955V202.5ZM630.055 202V193H629.055V202H630.055ZM630.055 175V166H629.055V175H630.055ZM629.555 165.5H607.888V166.5H629.555V165.5ZM564.555 165.5H521.221V166.5H564.555V165.5ZM477.888 165.5H434.555V166.5H477.888V165.5ZM391.221 165.5H369.555V166.5H391.221V165.5ZM369.555 166V165H368.555V166H369.555ZM629.555 166H630.555V165H629.555V166ZM629.555 202V203H630.555V202H629.555ZM432.755 202V201H431.755V202H432.755ZM432.755 218H431.755V219H432.755V218ZM629.555 218H630.555V217H629.555V218ZM629.555 254V255H630.555V254H629.555ZM432.755 254V253H431.755V254H432.755ZM432.755 270H431.755V271H432.755V270ZM629.555 270H630.555V269H629.555V270ZM629.555 306V307H630.555V306H629.555ZM369.555 306H368.555V307H369.555V306ZM368.555 166V201H370.555V166H368.555ZM368.555 271V306H370.555V271H368.555ZM369.555 307H391.221V305H369.555V307ZM434.555 307H477.888V305H434.555V307ZM521.221 307H564.555V305H521.221V307ZM607.888 307H629.555V305H607.888V307ZM630.555 306V297H628.555V306H630.555ZM630.555 279V270H628.555V279H630.555ZM629.555 269H604.955V271H629.555V269ZM555.755 269H506.555V271H555.755V269ZM457.355 269H432.755V271H457.355V269ZM433.755 270V266H431.755V270H433.755ZM433.755 258V254H431.755V258H433.755ZM432.755 255H457.355V253H432.755V255ZM506.555 255H555.755V253H506.555V255ZM604.955 255H629.555V253H604.955V255ZM630.555 254V245H628.555V254H630.555ZM630.555 227V218H628.555V227H630.555ZM629.555 217H604.955V219H629.555V217ZM555.755 217H506.555V219H555.755V217ZM457.355 217H432.755V219H457.355V217ZM433.755 218V214H431.755V218H433.755ZM433.755 206V202H431.755V206H433.755ZM432.755 203H457.355V201H432.755V203ZM506.555 203H555.755V201H506.555V203ZM604.955 203H629.555V201H604.955V203ZM630.555 202V193H628.555V202H630.555ZM630.555 175V166H628.555V175H630.555ZM629.555 165H607.888V167H629.555V165ZM564.555 165H521.221V167H564.555V165ZM477.888 165H434.555V167H477.888V165ZM391.221 165H369.555V167H391.221V165Z" fill="#B2B2B1" mask="url(#path-1-outside-1_61_198)"/>
</svg>
