<svg width="16" height="16" viewBox="0 0 16 16" fill="none" xmlns="http://www.w3.org/2000/svg">
<path d="M0 11V5.78261H6.60562C6.91955 5.78261 7.21604 5.85217 7.49509 5.9913C7.77414 6.12547 8.01613 6.3118 8.22106 6.55031C8.43034 6.78385 8.59385 7.05963 8.71157 7.37764C8.83365 7.69565 8.8947 8.03354 8.8947 8.3913C8.8947 8.44478 8.89333 8.49781 8.89061 8.55039C8.87509 8.84963 8.81541 9.13449 8.71157 9.40497C8.59385 9.72298 8.43034 10.0012 8.22106 10.2398C8.01613 10.4733 7.77414 10.6596 7.49509 10.7988C7.28157 10.9014 7.05784 10.9648 6.8239 10.9889C6.7521 10.9963 6.67934 11 6.60562 11H0ZM2.06017 9.13665H6.14781C6.35273 9.13665 6.51842 9.06708 6.64486 8.92795C6.77131 8.78882 6.83453 8.60994 6.83453 8.3913C6.83453 8.17267 6.77131 7.99379 6.64486 7.85466C6.51842 7.71553 6.35273 7.64596 6.14781 7.64596H2.06017V9.13665Z" fill="#FAEE50"/>
<path fill-rule="evenodd" clip-rule="evenodd" d="M8.89061 5.78261H6.8239V10.9889C7.05784 10.9648 7.28157 10.9014 7.49509 10.7988C7.77414 10.6596 8.01613 10.4733 8.22106 10.2398C8.43034 10.0012 8.59385 9.72298 8.71157 9.40497C8.81541 9.13449 8.87509 8.84963 8.89061 8.55039V8.01863L13.4557 11H15.5224V5.78261H13.4557V8.76398L8.89061 5.78261Z" fill="#FAEE50"/>
<path d="M0.477612 5.26087V5H9.36822L13.6945 7.82541V8.24224L9.12941 5.26087H7.0627V5.27238C6.99091 5.26471 6.91815 5.26087 6.84443 5.26087H0.477612Z" fill="#FAEE50"/>
<path d="M15.7612 10.2174H16V5H13.9333V5.26087H15.7612V10.2174Z" fill="#FAEE50"/>
</svg>
