<svg width="494" height="472" viewBox="0 0 494 472" fill="none" xmlns="http://www.w3.org/2000/svg">
<path d="M370.082 310.06H365.654V292.51H370.082V294.22H367.472V308.35H370.082V310.06ZM375.417 300.628H378.711V297.244H380.529V300.628H383.823V302.302H380.529V305.686H378.711V302.302H375.417V300.628ZM389.032 292.51H393.442V310.06H389.032V308.35H391.624V294.22H389.032V292.51ZM407.561 302.266V304.372C407.561 306.226 406.589 307 404.609 307H401.675C399.695 307 398.723 306.226 398.723 304.372V297.316C398.723 295.48 399.659 294.688 401.639 294.688H404.609C406.589 294.688 407.561 295.48 407.561 297.316V297.604L405.743 298.036V297.64C405.743 296.74 405.437 296.362 404.357 296.362H401.927C400.847 296.362 400.541 296.74 400.541 297.64V300.124C400.739 299.854 401.351 299.566 402.485 299.566H404.645C406.733 299.566 407.561 300.43 407.561 302.266ZM405.743 304.03V302.482C405.743 301.582 405.437 301.204 404.357 301.204H401.999C400.901 301.204 400.541 301.546 400.541 302.32V304.03C400.541 304.93 400.847 305.308 401.927 305.308H404.357C405.437 305.308 405.743 304.93 405.743 304.03Z" fill="#EBEBEB"/>
<path d="M455.082 310.06H450.654V292.51H455.082V294.22H452.472V308.35H455.082V310.06ZM460.417 300.628H463.711V297.244H465.529V300.628H468.823V302.302H465.529V305.686H463.711V302.302H460.417V300.628ZM474.032 292.51H478.442V310.06H474.032V308.35H476.624V294.22H474.032V292.51ZM492.435 301.942V304.372C492.435 306.226 491.463 307 489.483 307H486.747C484.767 307 483.795 306.226 483.795 304.372V303.976L485.613 303.67V304.03C485.613 304.93 485.901 305.308 486.981 305.308H489.249C490.329 305.308 490.617 304.93 490.617 304.03V302.212C490.617 301.312 490.329 300.934 489.249 300.934H487.053C485.955 300.934 485.613 301.294 485.613 301.996H483.795V294.688H492.309V296.362H485.613V299.854C485.955 299.512 486.603 299.296 487.557 299.296H489.537C491.337 299.296 492.435 300.052 492.435 301.942Z" fill="#EBEBEB"/>
<path d="M248.044 13H239.728V0.688H248.044V2.362H241.546V5.89H247V7.528H241.546V11.308H248.044V13ZM260.147 13H258.383L252.857 4.18H252.767V13H250.949V0.688H252.695L258.239 9.634H258.329V0.688H260.147V13ZM271.692 6.268V10.372C271.692 12.226 270.72 13 268.74 13H265.77C263.772 13 262.818 12.226 262.818 10.372V3.316C262.818 1.462 263.79 0.688 265.77 0.688H268.83C270.81 0.688 271.692 1.462 271.692 3.316V3.784L269.874 4.27V3.64C269.874 2.74 269.586 2.362 268.506 2.362H266.004C264.924 2.362 264.636 2.74 264.636 3.64V10.03C264.636 10.93 264.924 11.308 265.986 11.308H268.614C269.658 11.308 269.928 10.984 269.928 10.084V7.708H267.516V6.268H271.692Z" fill="#EBEBEB"/>
<path d="M244.786 24.688L248.854 33.904V37H247.036V34.21L246.55 33.184H241.132L240.664 34.21V37H238.846V33.904L242.914 24.688H244.786ZM243.814 26.776L241.708 31.564H245.974L243.886 26.776H243.814ZM260.579 26.362H256.457V37H254.639V26.362H250.535V24.688H260.579V26.362ZM271.71 33.562V34.372C271.71 36.226 270.738 37 268.758 37H265.788C263.808 37 262.836 36.226 262.836 34.372V27.316C262.836 25.48 263.808 24.688 265.788 24.688H268.758C270.738 24.688 271.71 25.48 271.71 27.316V28.054L269.892 28.54V27.64C269.892 26.74 269.604 26.362 268.524 26.362H266.04C264.96 26.362 264.654 26.74 264.654 27.64V34.03C264.654 34.93 264.96 35.308 266.04 35.308H268.524C269.604 35.308 269.892 34.93 269.892 34.03V33.022L271.71 33.562Z" fill="#EBEBEB"/>
<path d="M247.504 119.118V120.972L242.392 123.438V123.474L247.504 125.958V127.794L240.178 124.158V122.772L247.504 119.118ZM295.286 118.362H288.59V122.178H294.314V123.816H288.59V129H286.772V116.688H295.286V118.362ZM307.389 129H305.571V119.91H305.499L302.961 124.68H301.809L299.253 119.91H299.199V129H297.381V116.688H299.289L302.385 122.322L305.463 116.688H307.389V129ZM318.52 122.268V126.372C318.52 128.226 317.548 129 315.568 129H312.598C310.6 129 309.646 128.226 309.646 126.372V119.316C309.646 117.462 310.618 116.688 312.598 116.688H315.658C317.638 116.688 318.52 117.462 318.52 119.316V119.784L316.702 120.27V119.64C316.702 118.74 316.414 118.362 315.334 118.362H312.832C311.752 118.362 311.464 118.74 311.464 119.64V126.03C311.464 126.93 311.752 127.308 312.814 127.308H315.442C316.486 127.308 316.756 126.984 316.756 126.084V123.708H314.344V122.268H318.52ZM330.245 125.562V126.372C330.245 128.226 329.273 129 327.293 129H324.323C322.343 129 321.371 128.226 321.371 126.372V119.316C321.371 117.48 322.343 116.688 324.323 116.688H327.293C329.273 116.688 330.245 117.48 330.245 119.316V120.054L328.427 120.54V119.64C328.427 118.74 328.139 118.362 327.059 118.362H324.575C323.495 118.362 323.189 118.74 323.189 119.64V126.03C323.189 126.93 323.495 127.308 324.575 127.308H327.059C328.139 127.308 328.427 126.93 328.427 126.03V125.022L330.245 125.562ZM351.445 114.51V116.22H350.203C349.141 116.22 348.835 116.598 348.835 117.498V129.072C348.835 129.972 349.141 130.35 350.203 130.35H351.445V132.06H349.987C347.989 132.06 347.017 131.286 347.017 129.432V117.138C347.017 115.284 347.989 114.51 349.987 114.51H351.445ZM365.366 129H363.548V126.624L361.586 123.888H358.526V129H356.708V116.688H362.414C364.394 116.688 365.366 117.48 365.366 119.316V121.116C365.366 122.448 364.736 123.276 363.422 123.474L365.366 126.174V129ZM358.526 122.25H362.18C363.26 122.25 363.548 121.872 363.548 120.972V119.64C363.548 118.74 363.26 118.362 362.18 118.362H358.526V122.25ZM376.821 129H368.505V116.688H376.821V118.362H370.323V121.89H375.777V123.528H370.323V127.308H376.821V129ZM387.826 131.106L385.774 129H382.714C380.734 129 379.762 128.226 379.762 126.372V119.316C379.762 117.462 380.734 116.688 382.714 116.688H385.918C387.898 116.688 388.87 117.462 388.87 119.316V126.372C388.87 127.596 388.474 128.316 387.484 128.622L389.968 131.106H387.826ZM382.966 127.308H385.666C386.746 127.308 387.052 126.93 387.052 126.03V119.64C387.052 118.74 386.746 118.362 385.666 118.362H382.966C381.886 118.362 381.58 118.74 381.58 119.64V126.03C381.58 126.93 381.886 127.308 382.966 127.308ZM393.809 116.22V114.51H395.267C397.247 114.51 398.219 115.284 398.219 117.138V129.432C398.219 131.286 397.247 132.06 395.267 132.06H393.809V130.35H395.033C396.113 130.35 396.401 129.972 396.401 129.072V117.498C396.401 116.598 396.113 116.22 395.033 116.22H393.809Z" fill="#EBEBEB"/>
<path d="M248.44 153H246.676L241.15 144.18H241.06V153H239.242V140.688H240.988L246.532 149.634H246.622V140.688H248.44V153ZM256.493 140.688L260.561 149.904V153H258.743V150.21L258.257 149.184H252.839L252.371 150.21V153H250.553V149.904L254.621 140.688H256.493ZM255.521 142.776L253.415 147.564H257.681L255.593 142.776H255.521ZM272.178 143.892L268.236 153H266.274L262.35 143.892V140.688H264.168V143.64L267.228 150.912H267.282L270.36 143.64V140.688H272.178V143.892ZM286.43 153V140.688H292.136C294.116 140.688 295.088 141.462 295.088 143.316V144.648C295.088 145.71 294.674 146.466 293.702 146.736C294.674 146.988 295.088 147.744 295.088 148.824V150.372C295.088 152.226 294.116 153 292.136 153H286.43ZM288.248 145.926H291.884C292.964 145.926 293.27 145.512 293.27 144.612V143.64C293.27 142.74 292.964 142.362 291.884 142.362H288.248V145.926ZM288.248 151.308H291.884C292.964 151.308 293.27 150.93 293.27 150.03V148.842C293.27 147.942 292.964 147.564 291.884 147.564H288.248V151.308ZM298.803 154.638L304.131 139.32H305.949L300.603 154.638H298.803ZM318.538 140.688V150.372C318.538 152.226 317.566 153 315.586 153H312.58C310.6 153 309.628 152.226 309.628 150.372V140.688H311.446V150.03C311.446 150.93 311.734 151.308 312.85 151.308H315.352C316.432 151.308 316.72 150.93 316.72 150.03V140.688H318.538ZM330.479 143.316V145.26C330.479 147.096 329.507 147.888 327.527 147.888H323.693V153H321.875V140.688H327.527C329.507 140.688 330.479 141.48 330.479 143.316ZM328.661 144.882V143.64C328.661 142.74 328.355 142.362 327.275 142.362H323.693V146.25H327.275C328.355 146.25 328.661 145.782 328.661 144.882ZM368.955 144.972V143.118L376.281 146.772V148.158L368.955 151.794V149.958L374.067 147.474V147.438L368.955 144.972Z" fill="#EBEBEB"/>
<path d="M179.71 122.628H183.004V119.244H184.822V122.628H188.116V124.302H184.822V127.686H183.004V124.302H179.71V122.628ZM190.949 121.35V119.316C190.949 117.48 191.921 116.688 193.901 116.688H196.835C198.815 116.688 199.787 117.48 199.787 119.316V126.372C199.787 128.208 198.815 129 196.835 129H193.901C191.921 129 190.949 128.208 190.949 126.372V126.138L192.767 125.616V126.03C192.767 126.93 193.073 127.308 194.153 127.308H196.583C197.663 127.308 197.969 126.93 197.969 126.03V123.492C197.771 123.762 197.123 123.978 195.989 123.978H193.775C191.687 123.978 190.949 123.186 190.949 121.35ZM192.767 119.64V121.062C192.767 121.962 193.073 122.34 194.153 122.34H196.583C197.663 122.34 197.969 121.962 197.969 121.242V119.64C197.969 118.74 197.663 118.362 196.583 118.362H194.153C193.073 118.362 192.767 118.74 192.767 119.64Z" fill="#EBEBEB"/>
<path d="M248.44 310H246.676L241.15 301.18H241.06V310H239.242V297.688H240.988L246.532 306.634H246.622V297.688H248.44V310ZM260.291 301.054L256.475 304.636V310H254.657V304.636L250.823 301.054V297.688H252.641V300.37L255.557 303.178L258.473 300.37V297.688H260.291V301.054ZM283.993 299.362H279.871V310H278.053V299.362H273.949V297.688H283.993V299.362ZM291.758 310H289.598V307.984H291.758V310Z" fill="#EBEBEB"/>
<path d="M248.044 330H239.728V317.688H248.044V319.362H241.546V322.89H247V324.528H241.546V328.308H248.044V330ZM256.493 317.688L260.561 326.904V330H258.743V327.21L258.257 326.184H252.839L252.371 327.21V330H250.553V326.904L254.621 317.688H256.493ZM255.521 319.776L253.415 324.564H257.681L255.593 319.776H255.521ZM264.708 326.562V327.03C264.708 327.93 264.996 328.308 266.076 328.308H268.434C269.514 328.308 269.802 327.93 269.802 327.03V325.842C269.802 324.942 269.514 324.564 268.434 324.564H265.752C263.772 324.564 262.89 323.718 262.89 321.882V320.37C262.89 318.516 263.952 317.688 265.932 317.688H268.668C270.648 317.688 271.62 318.48 271.62 320.316V320.604L269.802 321.09V320.64C269.802 319.74 269.514 319.362 268.434 319.362H266.076C264.996 319.362 264.708 319.74 264.708 320.64V321.648C264.708 322.548 264.996 322.926 266.076 322.926H268.758C270.738 322.926 271.62 323.736 271.62 325.59V327.336C271.62 329.172 270.558 330 268.578 330H265.842C263.862 330 262.89 329.226 262.89 327.372V327.048L264.708 326.562ZM283.993 319.362H279.871V330H278.053V319.362H273.949V317.688H283.993V319.362ZM307.407 319.362H303.285V330H301.467V319.362H297.363V317.688H307.407V319.362ZM309.754 330V328.308H313.174V319.362H309.97V317.688H318.214V319.362H314.992V328.308H318.412V330H309.754ZM330.803 330H328.985V320.91H328.913L326.375 325.68H325.223L322.667 320.91H322.613V330H320.795V317.688H322.703L325.799 323.322L328.877 317.688H330.803V330ZM341.7 330H333.384V317.688H341.7V319.362H335.202V322.89H340.656V324.528H335.202V328.308H341.7V330Z" fill="#EBEBEB"/>
<path d="M240.178 341.972V340.118L247.504 343.772V345.158L240.178 348.794V346.958L245.29 344.474V344.438L240.178 341.972ZM271.944 340.316V342.26C271.944 344.096 270.972 344.888 268.992 344.888H265.158V350H263.34V337.688H268.992C270.972 337.688 271.944 338.48 271.944 340.316ZM270.126 341.882V340.64C270.126 339.74 269.82 339.362 268.74 339.362H265.158V343.25H268.74C269.82 343.25 270.126 342.782 270.126 341.882ZM283.165 350H274.849V337.688H283.165V339.362H276.667V342.89H282.121V344.528H276.667V348.308H283.165V350ZM295.7 339.362H291.578V350H289.76V339.362H285.656V337.688H295.7V339.362Z" fill="#EBEBEB"/>
<path d="M239.512 470V468.308H242.932V459.362H239.728V457.688H247.972V459.362H244.75V468.308H248.17V470H239.512ZM260.003 460.316V467.372C260.003 469.226 259.085 470 257.105 470H251.093V457.688H257.105C259.085 457.688 260.003 458.462 260.003 460.316ZM258.185 467.03V460.64C258.185 459.74 257.897 459.362 256.817 459.362H252.911V468.308H256.817C257.897 468.308 258.185 467.93 258.185 467.03ZM271.89 470H263.124V457.688H264.942V468.308H271.89V470ZM283.165 470H274.849V457.688H283.165V459.362H276.667V462.89H282.121V464.528H276.667V468.308H283.165V470ZM287.096 471.638L292.424 456.32H294.242L288.896 471.638H287.096ZM307.065 460.316V462.26C307.065 464.096 306.093 464.888 304.113 464.888H300.279V470H298.461V457.688H304.113C306.093 457.688 307.065 458.48 307.065 460.316ZM305.247 461.882V460.64C305.247 459.74 304.941 459.362 303.861 459.362H300.279V463.25H303.861C304.941 463.25 305.247 462.782 305.247 461.882ZM318.286 470H309.97V457.688H318.286V459.362H311.788V462.89H317.242V464.528H311.788V468.308H318.286V470ZM330.245 470H328.427V467.624L326.465 464.888H323.405V470H321.587V457.688H327.293C329.273 457.688 330.245 458.48 330.245 460.316V462.116C330.245 463.448 329.615 464.276 328.301 464.474L330.245 467.174V470ZM323.405 463.25H327.059C328.139 463.25 328.427 462.872 328.427 461.972V460.64C328.427 459.74 328.139 459.362 327.059 459.362H323.405V463.25ZM342.114 459.362H335.418V463.178H341.142V464.816H335.418V470H333.6V457.688H342.114V459.362Z" fill="#EBEBEB"/>
<path d="M246.838 385.302H240.862V383.628H246.838V385.302Z" fill="#EBEBEB"/>
<path d="M246.838 405.302H240.862V403.628H246.838V405.302Z" fill="#EBEBEB"/>
<path d="M246.838 58.302H240.862V56.628H246.838V58.302Z" fill="#EBEBEB"/>
<path d="M246.838 78.302H240.862V76.628H246.838V78.302Z" fill="#EBEBEB"/>
<path d="M246.838 98.302H240.862V96.628H246.838V98.302Z" fill="#EBEBEB"/>
<path d="M1.71 300.628H5.004V297.244H6.822V300.628H10.116V302.302H6.822V305.686H5.004V302.302H1.71V300.628ZM19.141 294.688V305.308H22.489V307H13.867V305.308H17.323V296.362H14.299V294.688H19.141ZM30.7221 307H27.7881C25.8081 307 24.8361 306.226 24.8361 304.372V297.316C24.8361 295.462 25.8081 294.688 27.7881 294.688H30.7221C32.7021 294.688 33.6741 295.462 33.6741 297.316V304.372C33.6741 306.226 32.7021 307 30.7221 307ZM28.0401 305.308H30.4701C31.5501 305.308 31.8561 304.93 31.8561 304.03V297.64C31.8561 296.74 31.5501 296.362 30.4701 296.362H28.0401C26.9601 296.362 26.6541 296.74 26.6541 297.64V304.03C26.6541 304.93 26.9601 305.308 28.0401 305.308Z" fill="#EBEBEB"/>
<path d="M82.082 310.06H77.654V292.51H82.082V294.22H79.472V308.35H82.082V310.06ZM87.417 300.628H90.711V297.244H92.529V300.628H95.823V302.302H92.529V305.686H90.711V302.302H87.417V300.628ZM101.032 292.51H105.442V310.06H101.032V308.35H103.624V294.22H101.032V292.51ZM110.723 307V294.688H116.429C118.409 294.688 119.381 295.462 119.381 297.316V298.648C119.381 299.71 118.967 300.466 117.995 300.736C118.967 300.988 119.381 301.744 119.381 302.824V304.372C119.381 306.226 118.409 307 116.429 307H110.723ZM112.541 299.926H116.177C117.257 299.926 117.563 299.512 117.563 298.612V297.64C117.563 296.74 117.257 296.362 116.177 296.362H112.541V299.926ZM112.541 305.308H116.177C117.257 305.308 117.563 304.93 117.563 304.03V302.842C117.563 301.942 117.257 301.564 116.177 301.564H112.541V305.308Z" fill="#EBEBEB"/>
<path d="M125.854 330H124.036V320.91H123.964L121.426 325.68H120.274L117.718 320.91H117.664V330H115.846V317.688H117.754L120.85 323.322L123.928 317.688H125.854V330ZM136.751 330H128.435V317.688H136.751V319.362H130.253V322.89H135.707V324.528H130.253V328.308H136.751V330ZM141.708 326.562V327.03C141.708 327.93 141.996 328.308 143.076 328.308H145.434C146.514 328.308 146.802 327.93 146.802 327.03V325.842C146.802 324.942 146.514 324.564 145.434 324.564H142.752C140.772 324.564 139.89 323.718 139.89 321.882V320.37C139.89 318.516 140.952 317.688 142.932 317.688H145.668C147.648 317.688 148.62 318.48 148.62 320.316V320.604L146.802 321.09V320.64C146.802 319.74 146.514 319.362 145.434 319.362H143.076C141.996 319.362 141.708 319.74 141.708 320.64V321.648C141.708 322.548 141.996 322.926 143.076 322.926H145.758C147.738 322.926 148.62 323.736 148.62 325.59V327.336C148.62 329.172 147.558 330 145.578 330H142.842C140.862 330 139.89 329.226 139.89 327.372V327.048L141.708 326.562ZM153.415 326.562V327.03C153.415 327.93 153.703 328.308 154.783 328.308H157.141C158.221 328.308 158.509 327.93 158.509 327.03V325.842C158.509 324.942 158.221 324.564 157.141 324.564H154.459C152.479 324.564 151.597 323.718 151.597 321.882V320.37C151.597 318.516 152.659 317.688 154.639 317.688H157.375C159.355 317.688 160.327 318.48 160.327 320.316V320.604L158.509 321.09V320.64C158.509 319.74 158.221 319.362 157.141 319.362H154.783C153.703 319.362 153.415 319.74 153.415 320.64V321.648C153.415 322.548 153.703 322.926 154.783 322.926H157.465C159.445 322.926 160.327 323.736 160.327 325.59V327.336C160.327 329.172 159.265 330 157.285 330H154.549C152.569 330 151.597 329.226 151.597 327.372V327.048L153.415 326.562ZM168.614 317.688L172.682 326.904V330H170.864V327.21L170.378 326.184H164.96L164.492 327.21V330H162.674V326.904L166.742 317.688H168.614ZM167.642 319.776L165.536 324.564H169.802L167.714 319.776H167.642ZM183.813 323.268V327.372C183.813 329.226 182.841 330 180.861 330H177.891C175.893 330 174.939 329.226 174.939 327.372V320.316C174.939 318.462 175.911 317.688 177.891 317.688H180.951C182.931 317.688 183.813 318.462 183.813 320.316V320.784L181.995 321.27V320.64C181.995 319.74 181.707 319.362 180.627 319.362H178.125C177.045 319.362 176.757 319.74 176.757 320.64V327.03C176.757 327.93 177.045 328.308 178.107 328.308H180.735C181.779 328.308 182.049 327.984 182.049 327.084V324.708H179.637V323.268H183.813ZM195.286 330H186.97V317.688H195.286V319.362H188.788V322.89H194.242V324.528H188.788V328.308H195.286V330ZM200.243 326.562V327.03C200.243 327.93 200.531 328.308 201.611 328.308H203.969C205.049 328.308 205.337 327.93 205.337 327.03V325.842C205.337 324.942 205.049 324.564 203.969 324.564H201.287C199.307 324.564 198.425 323.718 198.425 321.882V320.37C198.425 318.516 199.487 317.688 201.467 317.688H204.203C206.183 317.688 207.155 318.48 207.155 320.316V320.604L205.337 321.09V320.64C205.337 319.74 205.049 319.362 203.969 319.362H201.611C200.531 319.362 200.243 319.74 200.243 320.64V321.648C200.243 322.548 200.531 322.926 201.611 322.926H204.293C206.273 322.926 207.155 323.736 207.155 325.59V327.336C207.155 329.172 206.093 330 204.113 330H201.377C199.397 330 198.425 329.226 198.425 327.372V327.048L200.243 326.562Z" fill="#EBEBEB"/>
</svg>
