<svg width="373" height="472" viewBox="0 0 373 472" fill="none" xmlns="http://www.w3.org/2000/svg">
<path d="M174.044 13H165.728V0.688H174.044V2.362H167.546V5.89H173V7.528H167.546V11.308H174.044V13ZM186.147 13H184.383L178.857 4.18H178.767V13H176.949V0.688H178.695L184.239 9.634H184.329V0.688H186.147V13ZM197.692 6.268V10.372C197.692 12.226 196.72 13 194.74 13H191.77C189.772 13 188.818 12.226 188.818 10.372V3.316C188.818 1.462 189.79 0.688 191.77 0.688H194.83C196.81 0.688 197.692 1.462 197.692 3.316V3.784L195.874 4.27V3.64C195.874 2.74 195.586 2.362 194.506 2.362H192.004C190.924 2.362 190.636 2.74 190.636 3.64V10.03C190.636 10.93 190.924 11.308 191.986 11.308H194.614C195.658 11.308 195.928 10.984 195.928 10.084V7.708H193.516V6.268H197.692Z" fill="#EBEBEB"/>
<path d="M170.786 24.688L174.854 33.904V37H173.036V34.21L172.55 33.184H167.132L166.664 34.21V37H164.846V33.904L168.914 24.688H170.786ZM169.814 26.776L167.708 31.564H171.974L169.886 26.776H169.814ZM186.579 26.362H182.457V37H180.639V26.362H176.535V24.688H186.579V26.362ZM197.71 33.562V34.372C197.71 36.226 196.738 37 194.758 37H191.788C189.808 37 188.836 36.226 188.836 34.372V27.316C188.836 25.48 189.808 24.688 191.788 24.688H194.758C196.738 24.688 197.71 25.48 197.71 27.316V28.054L195.892 28.54V27.64C195.892 26.74 195.604 26.362 194.524 26.362H192.04C190.96 26.362 190.654 26.74 190.654 27.64V34.03C190.654 34.93 190.96 35.308 192.04 35.308H194.524C195.604 35.308 195.892 34.93 195.892 34.03V33.022L197.71 33.562Z" fill="#EBEBEB"/>
<path d="M173.504 119.118V120.972L168.392 123.438V123.474L173.504 125.958V127.794L166.178 124.158V122.772L173.504 119.118ZM221.286 118.362H214.59V122.178H220.314V123.816H214.59V129H212.772V116.688H221.286V118.362ZM233.389 129H231.571V119.91H231.499L228.961 124.68H227.809L225.253 119.91H225.199V129H223.381V116.688H225.289L228.385 122.322L231.463 116.688H233.389V129ZM244.52 122.268V126.372C244.52 128.226 243.548 129 241.568 129H238.598C236.6 129 235.646 128.226 235.646 126.372V119.316C235.646 117.462 236.618 116.688 238.598 116.688H241.658C243.638 116.688 244.52 117.462 244.52 119.316V119.784L242.702 120.27V119.64C242.702 118.74 242.414 118.362 241.334 118.362H238.832C237.752 118.362 237.464 118.74 237.464 119.64V126.03C237.464 126.93 237.752 127.308 238.814 127.308H241.442C242.486 127.308 242.756 126.984 242.756 126.084V123.708H240.344V122.268H244.52ZM256.245 125.562V126.372C256.245 128.226 255.273 129 253.293 129H250.323C248.343 129 247.371 128.226 247.371 126.372V119.316C247.371 117.48 248.343 116.688 250.323 116.688H253.293C255.273 116.688 256.245 117.48 256.245 119.316V120.054L254.427 120.54V119.64C254.427 118.74 254.139 118.362 253.059 118.362H250.575C249.495 118.362 249.189 118.74 249.189 119.64V126.03C249.189 126.93 249.495 127.308 250.575 127.308H253.059C254.139 127.308 254.427 126.93 254.427 126.03V125.022L256.245 125.562ZM277.445 114.51V116.22H276.203C275.141 116.22 274.835 116.598 274.835 117.498V129.072C274.835 129.972 275.141 130.35 276.203 130.35H277.445V132.06H275.987C273.989 132.06 273.017 131.286 273.017 129.432V117.138C273.017 115.284 273.989 114.51 275.987 114.51H277.445ZM291.366 129H289.548V126.624L287.586 123.888H284.526V129H282.708V116.688H288.414C290.394 116.688 291.366 117.48 291.366 119.316V121.116C291.366 122.448 290.736 123.276 289.422 123.474L291.366 126.174V129ZM284.526 122.25H288.18C289.26 122.25 289.548 121.872 289.548 120.972V119.64C289.548 118.74 289.26 118.362 288.18 118.362H284.526V122.25ZM302.821 129H294.505V116.688H302.821V118.362H296.323V121.89H301.777V123.528H296.323V127.308H302.821V129ZM313.826 131.106L311.774 129H308.714C306.734 129 305.762 128.226 305.762 126.372V119.316C305.762 117.462 306.734 116.688 308.714 116.688H311.918C313.898 116.688 314.87 117.462 314.87 119.316V126.372C314.87 127.596 314.474 128.316 313.484 128.622L315.968 131.106H313.826ZM308.966 127.308H311.666C312.746 127.308 313.052 126.93 313.052 126.03V119.64C313.052 118.74 312.746 118.362 311.666 118.362H308.966C307.886 118.362 307.58 118.74 307.58 119.64V126.03C307.58 126.93 307.886 127.308 308.966 127.308ZM319.809 116.22V114.51H321.267C323.247 114.51 324.219 115.284 324.219 117.138V129.432C324.219 131.286 323.247 132.06 321.267 132.06H319.809V130.35H321.033C322.113 130.35 322.401 129.972 322.401 129.072V117.498C322.401 116.598 322.113 116.22 321.033 116.22H319.809Z" fill="#EBEBEB"/>
<path d="M174.44 153H172.676L167.15 144.18H167.06V153H165.242V140.688H166.988L172.532 149.634H172.622V140.688H174.44V153ZM182.493 140.688L186.561 149.904V153H184.743V150.21L184.257 149.184H178.839L178.371 150.21V153H176.553V149.904L180.621 140.688H182.493ZM181.521 142.776L179.415 147.564H183.681L181.593 142.776H181.521ZM198.178 143.892L194.236 153H192.274L188.35 143.892V140.688H190.168V143.64L193.228 150.912H193.282L196.36 143.64V140.688H198.178V143.892ZM212.43 153V140.688H218.136C220.116 140.688 221.088 141.462 221.088 143.316V144.648C221.088 145.71 220.674 146.466 219.702 146.736C220.674 146.988 221.088 147.744 221.088 148.824V150.372C221.088 152.226 220.116 153 218.136 153H212.43ZM214.248 145.926H217.884C218.964 145.926 219.27 145.512 219.27 144.612V143.64C219.27 142.74 218.964 142.362 217.884 142.362H214.248V145.926ZM214.248 151.308H217.884C218.964 151.308 219.27 150.93 219.27 150.03V148.842C219.27 147.942 218.964 147.564 217.884 147.564H214.248V151.308ZM224.803 154.638L230.131 139.32H231.949L226.603 154.638H224.803ZM244.538 140.688V150.372C244.538 152.226 243.566 153 241.586 153H238.58C236.6 153 235.628 152.226 235.628 150.372V140.688H237.446V150.03C237.446 150.93 237.734 151.308 238.85 151.308H241.352C242.432 151.308 242.72 150.93 242.72 150.03V140.688H244.538ZM256.479 143.316V145.26C256.479 147.096 255.507 147.888 253.527 147.888H249.693V153H247.875V140.688H253.527C255.507 140.688 256.479 141.48 256.479 143.316ZM254.661 144.882V143.64C254.661 142.74 254.355 142.362 253.275 142.362H249.693V146.25H253.275C254.355 146.25 254.661 145.782 254.661 144.882ZM294.955 144.972V143.118L302.281 146.772V148.158L294.955 151.794V149.958L300.067 147.474V147.438L294.955 144.972Z" fill="#EBEBEB"/>
<path d="M174.44 310H172.676L167.15 301.18H167.06V310H165.242V297.688H166.988L172.532 306.634H172.622V297.688H174.44V310ZM186.291 301.054L182.475 304.636V310H180.657V304.636L176.823 301.054V297.688H178.641V300.37L181.557 303.178L184.473 300.37V297.688H186.291V301.054ZM209.993 299.362H205.871V310H204.053V299.362H199.949V297.688H209.993V299.362ZM217.758 310H215.598V307.984H217.758V310Z" fill="#EBEBEB"/>
<path d="M174.044 330H165.728V317.688H174.044V319.362H167.546V322.89H173V324.528H167.546V328.308H174.044V330ZM182.493 317.688L186.561 326.904V330H184.743V327.21L184.257 326.184H178.839L178.371 327.21V330H176.553V326.904L180.621 317.688H182.493ZM181.521 319.776L179.415 324.564H183.681L181.593 319.776H181.521ZM190.708 326.562V327.03C190.708 327.93 190.996 328.308 192.076 328.308H194.434C195.514 328.308 195.802 327.93 195.802 327.03V325.842C195.802 324.942 195.514 324.564 194.434 324.564H191.752C189.772 324.564 188.89 323.718 188.89 321.882V320.37C188.89 318.516 189.952 317.688 191.932 317.688H194.668C196.648 317.688 197.62 318.48 197.62 320.316V320.604L195.802 321.09V320.64C195.802 319.74 195.514 319.362 194.434 319.362H192.076C190.996 319.362 190.708 319.74 190.708 320.64V321.648C190.708 322.548 190.996 322.926 192.076 322.926H194.758C196.738 322.926 197.62 323.736 197.62 325.59V327.336C197.62 329.172 196.558 330 194.578 330H191.842C189.862 330 188.89 329.226 188.89 327.372V327.048L190.708 326.562ZM209.993 319.362H205.871V330H204.053V319.362H199.949V317.688H209.993V319.362ZM233.407 319.362H229.285V330H227.467V319.362H223.363V317.688H233.407V319.362ZM235.754 330V328.308H239.174V319.362H235.97V317.688H244.214V319.362H240.992V328.308H244.412V330H235.754ZM256.803 330H254.985V320.91H254.913L252.375 325.68H251.223L248.667 320.91H248.613V330H246.795V317.688H248.703L251.799 323.322L254.877 317.688H256.803V330ZM267.7 330H259.384V317.688H267.7V319.362H261.202V322.89H266.656V324.528H261.202V328.308H267.7V330Z" fill="#EBEBEB"/>
<path d="M166.178 341.972V340.118L173.504 343.772V345.158L166.178 348.794V346.958L171.29 344.474V344.438L166.178 341.972ZM197.944 340.316V342.26C197.944 344.096 196.972 344.888 194.992 344.888H191.158V350H189.34V337.688H194.992C196.972 337.688 197.944 338.48 197.944 340.316ZM196.126 341.882V340.64C196.126 339.74 195.82 339.362 194.74 339.362H191.158V343.25H194.74C195.82 343.25 196.126 342.782 196.126 341.882ZM209.165 350H200.849V337.688H209.165V339.362H202.667V342.89H208.121V344.528H202.667V348.308H209.165V350ZM221.7 339.362H217.578V350H215.76V339.362H211.656V337.688H221.7V339.362Z" fill="#EBEBEB"/>
<path d="M165.512 470V468.308H168.932V459.362H165.728V457.688H173.972V459.362H170.75V468.308H174.17V470H165.512ZM186.003 460.316V467.372C186.003 469.226 185.085 470 183.105 470H177.093V457.688H183.105C185.085 457.688 186.003 458.462 186.003 460.316ZM184.185 467.03V460.64C184.185 459.74 183.897 459.362 182.817 459.362H178.911V468.308H182.817C183.897 468.308 184.185 467.93 184.185 467.03ZM197.89 470H189.124V457.688H190.942V468.308H197.89V470ZM209.165 470H200.849V457.688H209.165V459.362H202.667V462.89H208.121V464.528H202.667V468.308H209.165V470ZM213.096 471.638L218.424 456.32H220.242L214.896 471.638H213.096ZM233.065 460.316V462.26C233.065 464.096 232.093 464.888 230.113 464.888H226.279V470H224.461V457.688H230.113C232.093 457.688 233.065 458.48 233.065 460.316ZM231.247 461.882V460.64C231.247 459.74 230.941 459.362 229.861 459.362H226.279V463.25H229.861C230.941 463.25 231.247 462.782 231.247 461.882ZM244.286 470H235.97V457.688H244.286V459.362H237.788V462.89H243.242V464.528H237.788V468.308H244.286V470ZM256.245 470H254.427V467.624L252.465 464.888H249.405V470H247.587V457.688H253.293C255.273 457.688 256.245 458.48 256.245 460.316V462.116C256.245 463.448 255.615 464.276 254.301 464.474L256.245 467.174V470ZM249.405 463.25H253.059C254.139 463.25 254.427 462.872 254.427 461.972V460.64C254.427 459.74 254.139 459.362 253.059 459.362H249.405V463.25ZM268.114 459.362H261.418V463.178H267.142V464.816H261.418V470H259.6V457.688H268.114V459.362Z" fill="#EBEBEB"/>
<path d="M172.838 385.302H166.862V383.628H172.838V385.302Z" fill="#EBEBEB"/>
<path d="M172.838 405.302H166.862V403.628H172.838V405.302Z" fill="#EBEBEB"/>
<path d="M172.838 58.302H166.862V56.628H172.838V58.302Z" fill="#EBEBEB"/>
<path d="M172.838 78.302H166.862V76.628H172.838V78.302Z" fill="#EBEBEB"/>
<path d="M172.838 98.302H166.862V96.628H172.838V98.302Z" fill="#EBEBEB"/>
<path d="M8.082 310.06H3.654V292.51H8.082V294.22H5.472V308.35H8.082V310.06ZM13.417 300.628H16.711V297.244H18.529V300.628H21.823V302.302H18.529V305.686H16.711V302.302H13.417V300.628ZM27.0321 292.51H31.4421V310.06H27.0321V308.35H29.6241V294.22H27.0321V292.51ZM36.7231 307V294.688H42.4291C44.4091 294.688 45.3811 295.462 45.3811 297.316V298.648C45.3811 299.71 44.9671 300.466 43.9951 300.736C44.9671 300.988 45.3811 301.744 45.3811 302.824V304.372C45.3811 306.226 44.4091 307 42.4291 307H36.7231ZM38.5411 299.926H42.1771C43.2571 299.926 43.5631 299.512 43.5631 298.612V297.64C43.5631 296.74 43.2571 296.362 42.1771 296.362H38.5411V299.926ZM38.5411 305.308H42.1771C43.2571 305.308 43.5631 304.93 43.5631 304.03V302.842C43.5631 301.942 43.2571 301.564 42.1771 301.564H38.5411V305.308Z" fill="#EBEBEB"/>
<path d="M51.854 330H50.036V320.91H49.964L47.426 325.68H46.274L43.718 320.91H43.664V330H41.846V317.688H43.754L46.85 323.322L49.928 317.688H51.854V330ZM62.751 330H54.435V317.688H62.751V319.362H56.253V322.89H61.707V324.528H56.253V328.308H62.751V330ZM67.7081 326.562V327.03C67.7081 327.93 67.9961 328.308 69.0761 328.308H71.4341C72.5141 328.308 72.8021 327.93 72.8021 327.03V325.842C72.8021 324.942 72.5141 324.564 71.4341 324.564H68.7521C66.7721 324.564 65.8901 323.718 65.8901 321.882V320.37C65.8901 318.516 66.9521 317.688 68.9321 317.688H71.6681C73.6481 317.688 74.6201 318.48 74.6201 320.316V320.604L72.8021 321.09V320.64C72.8021 319.74 72.5141 319.362 71.4341 319.362H69.0761C67.9961 319.362 67.7081 319.74 67.7081 320.64V321.648C67.7081 322.548 67.9961 322.926 69.0761 322.926H71.7581C73.7381 322.926 74.6201 323.736 74.6201 325.59V327.336C74.6201 329.172 73.5581 330 71.5781 330H68.8421C66.8621 330 65.8901 329.226 65.8901 327.372V327.048L67.7081 326.562ZM79.4151 326.562V327.03C79.4151 327.93 79.7031 328.308 80.7831 328.308H83.1411C84.2211 328.308 84.5091 327.93 84.5091 327.03V325.842C84.5091 324.942 84.2211 324.564 83.1411 324.564H80.4591C78.4791 324.564 77.5971 323.718 77.5971 321.882V320.37C77.5971 318.516 78.6591 317.688 80.6391 317.688H83.3751C85.3551 317.688 86.3271 318.48 86.3271 320.316V320.604L84.5091 321.09V320.64C84.5091 319.74 84.2211 319.362 83.1411 319.362H80.7831C79.7031 319.362 79.4151 319.74 79.4151 320.64V321.648C79.4151 322.548 79.7031 322.926 80.7831 322.926H83.4651C85.4451 322.926 86.3271 323.736 86.3271 325.59V327.336C86.3271 329.172 85.2651 330 83.2851 330H80.5491C78.5691 330 77.5971 329.226 77.5971 327.372V327.048L79.4151 326.562ZM94.6141 317.688L98.6821 326.904V330H96.8641V327.21L96.3781 326.184H90.9601L90.4921 327.21V330H88.6741V326.904L92.7421 317.688H94.6141ZM93.6421 319.776L91.5361 324.564H95.8021L93.7141 319.776H93.6421ZM109.813 323.268V327.372C109.813 329.226 108.841 330 106.861 330H103.891C101.893 330 100.939 329.226 100.939 327.372V320.316C100.939 318.462 101.911 317.688 103.891 317.688H106.951C108.931 317.688 109.813 318.462 109.813 320.316V320.784L107.995 321.27V320.64C107.995 319.74 107.707 319.362 106.627 319.362H104.125C103.045 319.362 102.757 319.74 102.757 320.64V327.03C102.757 327.93 103.045 328.308 104.107 328.308H106.735C107.779 328.308 108.049 327.984 108.049 327.084V324.708H105.637V323.268H109.813ZM121.286 330H112.97V317.688H121.286V319.362H114.788V322.89H120.242V324.528H114.788V328.308H121.286V330ZM126.243 326.562V327.03C126.243 327.93 126.531 328.308 127.611 328.308H129.969C131.049 328.308 131.337 327.93 131.337 327.03V325.842C131.337 324.942 131.049 324.564 129.969 324.564H127.287C125.307 324.564 124.425 323.718 124.425 321.882V320.37C124.425 318.516 125.487 317.688 127.467 317.688H130.203C132.183 317.688 133.155 318.48 133.155 320.316V320.604L131.337 321.09V320.64C131.337 319.74 131.049 319.362 129.969 319.362H127.611C126.531 319.362 126.243 319.74 126.243 320.64V321.648C126.243 322.548 126.531 322.926 127.611 322.926H130.293C132.273 322.926 133.155 323.736 133.155 325.59V327.336C133.155 329.172 132.093 330 130.113 330H127.377C125.397 330 124.425 329.226 124.425 327.372V327.048L126.243 326.562Z" fill="#EBEBEB"/>
</svg>
