<svg width="268" height="614" viewBox="0 0 268 614" fill="none" xmlns="http://www.w3.org/2000/svg">
<path d="M257 589L253 593L249 589" stroke="#B2B2B1"/>
<path d="M257 509L253 513L249 509" stroke="#B2B2B1"/>
<path d="M257 599L253 603L249 599" stroke="#B2B2B1"/>
<path d="M257 549L253 553L249 549" stroke="#B2B2B1"/>
<path d="M257 609L253 613L249 609" stroke="#B2B2B1"/>
<path d="M257 559L253 563L249 559" stroke="#B2B2B1"/>
<path d="M267 614L267 0.999999" stroke="#B2B2B1" stroke-dasharray="4 4"/>
<path d="M267 1H6.17504e-05" stroke="#B2B2B1" stroke-dasharray="4 4"/>
<path d="M131.049 21.4V22.648C131.049 23.776 130.557 24.256 129.297 24.256H126.249V28H125.505V19.792H129.297C130.557 19.792 131.049 20.272 131.049 21.4ZM130.317 22.516V21.52C130.317 20.764 130.113 20.464 129.213 20.464H126.249V23.596H129.213C130.113 23.596 130.317 23.26 130.317 22.516ZM138.698 28H137.954V26.368L136.502 24.256H133.898V28H133.166V19.792H136.934C138.194 19.792 138.698 20.272 138.698 21.4V22.612C138.698 23.56 138.314 24.052 137.27 24.124L138.698 26.164V28ZM133.898 23.596H136.85C137.75 23.596 137.954 23.296 137.954 22.54V21.52C137.954 20.764 137.75 20.464 136.85 20.464H133.898V23.596ZM144.87 28H142.386C141.126 28 140.634 27.52 140.634 26.392V21.4C140.634 20.272 141.126 19.792 142.386 19.792H144.87C146.13 19.792 146.622 20.272 146.622 21.4V26.392C146.622 27.52 146.13 28 144.87 28ZM142.482 27.316H144.774C145.674 27.316 145.878 27.016 145.878 26.272V21.52C145.878 20.764 145.674 20.464 144.774 20.464H142.482C141.582 20.464 141.378 20.764 141.378 21.52V26.272C141.378 27.016 141.582 27.316 142.482 27.316ZM148.979 20.464V19.792H154.151V26.392C154.151 27.52 153.659 28 152.399 28H150.311C149.051 28 148.559 27.52 148.559 26.392V25.672L149.303 25.432V26.272C149.303 27.016 149.507 27.316 150.407 27.316H152.303C153.203 27.316 153.419 27.004 153.419 26.272V20.464H148.979ZM161.992 28H156.604V19.792H161.992V20.464H157.348V23.476H161.32V24.136H157.348V27.316H161.992V28ZM169.917 26.008V26.392C169.917 27.52 169.425 28 168.165 28H165.969C164.709 28 164.217 27.52 164.217 26.392V21.4C164.217 20.272 164.709 19.792 165.969 19.792H168.165C169.425 19.792 169.917 20.272 169.917 21.4V21.748L169.173 21.964V21.52C169.173 20.764 168.969 20.464 168.069 20.464H166.065C165.165 20.464 164.961 20.764 164.961 21.52V26.272C164.961 27.016 165.165 27.316 166.065 27.316H168.069C168.969 27.316 169.173 27.016 169.173 26.272V25.78L169.917 26.008ZM178.129 20.464H175.225V28H174.481V20.464H171.565V19.792H178.129V20.464ZM193.475 28H187.883V19.792H188.615V27.316H193.475V28ZM195.495 28V27.316H197.895V20.464H195.639V19.792H200.883V20.464H198.639V27.316H201.027V28H195.495ZM209.012 28H208.292L203.888 21.196H203.864V28H203.12V19.792H203.828L208.244 26.632H208.268V19.792H209.012V28ZM216.625 28H211.237V19.792H216.625V20.464H211.981V23.476H215.953V24.136H211.981V27.316H216.625V28ZM232.234 28H226.846V19.792H232.234V20.464H227.59V23.476H231.562V24.136H227.59V27.316H232.234V28ZM240.231 28H239.511L235.107 21.196H235.083V28H234.339V19.792H235.047L239.463 26.632H239.487V19.792H240.231V28ZM247.963 21.4V26.392C247.963 27.52 247.483 28 246.223 28H242.215V19.792H246.235C247.483 19.792 247.963 20.272 247.963 21.4ZM247.219 26.272V21.52C247.219 20.764 247.015 20.464 246.115 20.464H242.959V27.316H246.115C247.015 27.316 247.219 27.016 247.219 26.272ZM216.817 45H216.097L211.693 38.196H211.669V45H210.925V36.792H211.633L216.049 43.632H216.073V36.792H216.817V45ZM224.429 45H219.041V36.792H224.429V37.464H219.785V40.476H223.757V41.136H219.785V44.316H224.429V45ZM229.486 40.32L231.478 38.46V36.792H232.21V38.712L229.99 40.764L232.474 43.08V45H231.742V43.344L229.486 41.232L227.23 43.344V45H226.498V43.08L228.982 40.764L226.762 38.712V36.792H227.494V38.46L229.486 40.32ZM240.567 37.464H237.663V45H236.919V37.464H234.003V36.792H240.567V37.464ZM245.599 45H244.579V44.052H245.599V45ZM169.917 60.008V60.392C169.917 61.52 169.425 62 168.165 62H165.969C164.709 62 164.217 61.52 164.217 60.392V55.4C164.217 54.272 164.709 53.792 165.969 53.792H168.165C169.425 53.792 169.917 54.272 169.917 55.4V55.748L169.173 55.964V55.52C169.173 54.764 168.969 54.464 168.069 54.464H166.065C165.165 54.464 164.961 54.764 164.961 55.52V60.272C164.961 61.016 165.165 61.316 166.065 61.316H168.069C168.969 61.316 169.173 61.016 169.173 60.272V59.78L169.917 60.008ZM176.089 62H173.605C172.345 62 171.853 61.52 171.853 60.392V55.4C171.853 54.272 172.345 53.792 173.605 53.792H176.089C177.349 53.792 177.841 54.272 177.841 55.4V60.392C177.841 61.52 177.349 62 176.089 62ZM173.701 61.316H175.993C176.893 61.316 177.097 61.016 177.097 60.272V55.52C177.097 54.764 176.893 54.464 175.993 54.464H173.701C172.801 54.464 172.597 54.764 172.597 55.52V60.272C172.597 61.016 172.801 61.316 173.701 61.316ZM185.598 62H184.878L180.474 55.196H180.45V62H179.706V53.792H180.414L184.83 60.632H184.854V53.792H185.598V62ZM193.739 54.464H190.835V62H190.091V54.464H187.175V53.792H193.739V54.464ZM198.639 53.792L201.519 60.008V62H200.787V60.152L200.307 59.132H196.227L195.747 60.152V62H195.003V60.008L197.883 53.792H198.639ZM198.243 54.644L196.467 58.472H200.055L198.279 54.644H198.243ZM208.94 60.008V60.392C208.94 61.52 208.448 62 207.188 62H204.992C203.732 62 203.24 61.52 203.24 60.392V55.4C203.24 54.272 203.732 53.792 204.992 53.792H207.188C208.448 53.792 208.94 54.272 208.94 55.4V55.748L208.196 55.964V55.52C208.196 54.764 207.992 54.464 207.092 54.464H205.088C204.188 54.464 203.984 54.764 203.984 55.52V60.272C203.984 61.016 204.188 61.316 205.088 61.316H207.092C207.992 61.316 208.196 61.016 208.196 60.272V59.78L208.94 60.008ZM217.153 54.464H214.249V62H213.505V54.464H210.589V53.792H217.153V54.464ZM219.605 59.96V60.272C219.605 61.016 219.809 61.316 220.709 61.316H222.641C223.541 61.316 223.745 61.016 223.745 60.272V59.204C223.745 58.448 223.541 58.148 222.641 58.148H220.589C219.329 58.148 218.861 57.656 218.861 56.528V55.412C218.861 54.296 219.389 53.792 220.649 53.792H222.737C223.997 53.792 224.489 54.272 224.489 55.4V55.604L223.745 55.82V55.52C223.745 54.764 223.541 54.464 222.641 54.464H220.709C219.809 54.464 219.605 54.764 219.605 55.52V56.432C219.605 57.188 219.809 57.488 220.709 57.488H222.761C224.021 57.488 224.489 57.98 224.489 59.108V60.38C224.489 61.508 223.961 62 222.701 62H220.613C219.353 62 218.861 61.52 218.861 60.392V60.176L219.605 59.96ZM234.927 56.396V55.652L239.643 58.052V58.616L234.927 61.016V60.272L238.755 58.352V58.328L234.927 56.396ZM242.731 56.396V55.652L247.447 58.052V58.616L242.731 61.016V60.272L246.559 58.352V58.328L242.731 56.396ZM247.051 75.676H243.127V75.004H247.051V75.676ZM242.935 97.092L246.499 86.88H247.243L243.679 97.092H242.935Z" fill="#B2B2B1"/>
</svg>
